<?xml version="1.0" encoding="utf-8"?>
<!-- Generator: Adobe Illustrator 27.7.0, SVG Export Plug-In . SVG Version: 6.00 Build 0)  -->
<svg version="1.1" id="Ebene_1" xmlns="http://www.w3.org/2000/svg" xmlns:xlink="http://www.w3.org/1999/xlink" x="0px" y="0px"
	 viewBox="0 0 818.7 566.9" style="enable-background:new 0 0 818.7 566.9;" xml:space="preserve">
<style type="text/css">
	.st0{fill:#F37321;}
</style>
<path class="st0" d="M194.3,434.1c-52.2,50.6-127.1,58-168.1,16.4c-41.4-41.8-32.6-117.5,19.5-169.1c-51.6-52.2-59.5-128-17.6-169.3
	c41.8-41.4,117.6-32.6,169.1,19.6C197.7,58.4,245.7-0.8,304.5-0.5s106.2,60.1,105.8,133.4C410.7,59.6,458.7,0.4,517.6,0.7
	C576.5,1,623.8,60.8,623.3,134.1c52.2-51.6,128-59.5,169.3-17.6s32.7,117.6-19.5,169.1c51.6,52.2,59.5,128,17.6,169.3
	c-41.8,41.4-117.6,32.6-169.1-19.6c-0.4,73.4-48.4,132.5-107.3,132.2c-58.8-0.3-106.2-60.1-105.8-133.4
	c-0.4,73.4-48.4,132.5-107.3,132.2C242.5,566,195.1,506.4,195.5,433L194.3,434.1z"/>
</svg>
