<?xml version="1.0" encoding="utf-8"?>
<!-- Generator: Adobe Illustrator 27.7.0, SVG Export Plug-In . SVG Version: 6.00 Build 0)  -->
<svg version="1.1" id="Ebene_1" xmlns="http://www.w3.org/2000/svg" xmlns:xlink="http://www.w3.org/1999/xlink" x="0px" y="0px"
	 viewBox="0 0 1048 566.9" style="enable-background:new 0 0 1048 566.9;" xml:space="preserve">
<style type="text/css">
	.st0{fill:#F37321;}
</style>
<g>
	<path class="st0" d="M199,434.1c0,73.4,48.5,132.8,108.3,132.8s108.3-59.5,108.3-132.8c0,73.4,48.5,132.8,108.3,132.8
		c59.8,0,108.3-59.5,108.3-132.8c0,73.4,48.5,132.8,108.3,132.8s108.3-59.5,108.3-132.8c52.7,51.9,129.8,60.2,172.1,18.6
		c42.3-41.6,33.8-117.4-18.9-169.2c52.7-51.9,61.2-127.6,18.9-169.2c-42.3-41.6-119.4-33.3-172.1,18.6C848.9,59.5,800.5,0,740.6,0
		S632.3,59.5,632.3,132.8C632.3,59.5,583.8,0,524,0c-59.8,0-108.3,59.5-108.3,132.8C415.7,59.5,367.2,0,307.3,0S199,59.5,199,132.8
		C146.3,80.9,69.2,72.6,26.9,114.2c-42.3,41.6-33.8,117.4,18.9,169.2c-52.7,51.9-61.2,127.6-18.9,169.2
		C69.2,494.3,146.3,486,199,434.1"/>
</g>
</svg>
