<?xml version="1.0" encoding="utf-8"?>
<!-- Generator: Adobe Illustrator 27.7.0, SVG Export Plug-In . SVG Version: 6.00 Build 0)  -->
<svg version="1.1" id="Ebene_1" xmlns="http://www.w3.org/2000/svg" xmlns:xlink="http://www.w3.org/1999/xlink" x="0px" y="0px"
	 viewBox="0 0 533.4 1106.9" style="enable-background:new 0 0 533.4 1106.9;" xml:space="preserve">
<style type="text/css">
	.st0{fill:#C7AFD0;}
</style>
<g>
	<path class="st0" d="M0,117.1c0-4.3,0.7-8.7,2.2-12.9C11,78.1,44.4,65.7,75.9,57.1c29-7.9,67.5-15.2,117.8-22.4
		c89-12.6,194.6-21.6,264.5-27.5c16.3-1.4,30.5-2.6,42.5-3.7c16.5-1.5,31.1,10.7,32.6,27.2c1.5,16.5-10.7,31.1-27.2,32.6
		c-12.1,1.1-26.3,2.3-42.8,3.7C398.9,72.5,301.6,80.7,217.8,92c-45.4,6.1-82.4,12.5-110.2,19c-7.3,1.7-13.6,3.3-19,4.9
		c9.3,2.3,21,4.8,35.9,7.5c39.1,7.1,89,13.6,137.2,19.8c60.2,7.8,122.4,15.8,169.5,25.7c26.8,5.7,47,11.6,61.6,18.1
		c10,4.5,17.9,9.4,23.9,15c12.5,11.6,15.1,24.2,15.1,32.7c0,13.7-6.6,33-37.8,47.3c-14.2,6.5-33.6,12.3-59.6,17.9
		c-45.4,9.7-105.9,17.5-164.4,25c-49.8,6.4-101.2,13-141.8,20.6c-19.6,3.7-33.9,7.1-44.4,10.1c10.4,3,24.8,6.4,44.4,10.1
		c40.6,7.6,92.1,14.2,141.8,20.6c58.5,7.5,119,15.3,164.4,25c25.9,5.5,45.4,11.4,59.6,17.9c31.2,14.3,37.8,33.6,37.8,47.3
		s-6.6,33-37.8,47.3c-14.2,6.5-33.6,12.3-59.6,17.9c-45.4,9.7-105.9,17.5-164.4,25c-49.8,6.4-101.2,13-141.8,20.6
		c-19.6,3.7-33.9,7.1-44.4,10.1c10.4,3,24.8,6.4,44.4,10.1c40.6,7.6,92.1,14.2,141.8,20.6c58.5,7.5,119,15.3,164.4,25
		c25.9,5.5,45.4,11.4,59.6,17.9c31.2,14.3,37.8,33.6,37.8,47.3s-6.6,33-37.8,47.3c-14.2,6.5-33.6,12.3-59.6,17.9
		c-45.4,9.7-105.9,17.5-164.4,25c-49.8,6.4-101.2,13-141.8,20.6c-19.6,3.7-33.9,7.1-44.4,10.1c10.4,3,24.8,6.4,44.4,10.1
		c40.6,7.6,92.1,14.2,141.8,20.6c58.5,7.5,119,15.3,164.4,25c25.9,5.5,45.4,11.4,59.6,17.9c31.2,14.3,37.8,33.6,37.8,47.3
		c0,23.2-14.7,42.7-43.6,58c-18.8,10-45,19.1-80.2,27.9c-62.4,15.6-144.1,28.2-230.5,41.6c-47.2,7.3-96.1,14.8-141.6,22.9
		c-16.3,2.9-31.9-8-34.8-24.3c-2.9-16.3,8-31.9,24.3-34.8c46.2-8.2,95.4-15.8,143-23.1c77.4-11.9,150.4-23.2,208.2-36.4
		c49-11.2,73.3-21,85.2-27.5c-10.3-3.7-27.9-8.7-57.5-14.2c-40.6-7.6-92.1-14.2-141.8-20.6c-58.5-7.5-119-15.3-164.4-25
		c-25.9-5.5-45.4-11.4-59.6-17.9C7.1,871.8,0.6,852.4,0.6,838.7s6.6-33,37.8-47.3c14.2-6.5,33.6-12.3,59.6-17.9
		c45.4-9.7,105.9-17.5,164.4-25c49.8-6.4,101.2-13,141.8-20.6c19.6-3.7,33.9-7.1,44.4-10.1c-10.4-3-24.8-6.4-44.4-10.1
		c-40.6-7.6-92.1-14.2-141.8-20.6c-58.5-7.5-119-15.3-164.4-25c-25.9-5.5-45.4-11.4-59.6-17.9C7.1,630.1,0.6,610.8,0.6,597.1
		s6.6-33,37.8-47.3c14.2-6.5,33.6-12.3,59.6-17.9c45.4-9.7,105.9-17.5,164.4-25c49.8-6.4,101.2-13,141.8-20.6
		c19.6-3.7,33.9-7.1,44.4-10.1c-10.4-3-24.8-6.4-44.4-10.1c-40.6-7.6-92.1-14.2-141.8-20.6c-58.5-7.5-119-15.3-164.4-25
		c-25.9-5.5-45.4-11.4-59.6-17.9C7.1,388.5,0.6,369.2,0.6,355.5s6.6-33,37.8-47.3c14.2-6.5,33.6-12.3,59.6-17.9
		c45.4-9.7,105.9-17.5,164.4-25c49.8-6.4,101.2-13,141.8-20.6c19.4-3.6,33.6-7,44-10c-11-3.1-26.2-6.8-47.3-10.7
		c-42.3-7.9-95.4-14.8-146.9-21.4C90.1,181.5,26.3,170.5,6.2,138.4C2.1,131.8,0,124.5,0,117.1z"/>
</g>
</svg>
