<?xml version="1.0" encoding="utf-8"?>
<!-- Generator: Adobe Illustrator 27.7.0, SVG Export Plug-In . SVG Version: 6.00 Build 0)  -->
<svg version="1.1" id="Layer_1" xmlns="http://www.w3.org/2000/svg" xmlns:xlink="http://www.w3.org/1999/xlink" x="0px" y="0px"
	 viewBox="0 0 96.1 96.1" style="enable-background:new 0 0 96.1 96.1;" xml:space="preserve">
<g>
	<g>
		<g>
			<path d="M48.8,96.1L48,89.8c-1.8-15.9-8.9-18.3-8.9-18.3L39,71.5c-0.1,0-6.7-3.4-19.3,6.6L14.8,82l3.9-4.9
				c10-12.5,6.6-19.2,6.6-19.3c-0.1-0.2-2.5-7.3-18.3-9.1l-6.3-0.7L7,47.3c15.9-1.8,18.3-8.9,18.3-8.9c0.1-0.2,3.4-6.9-6.6-19.4
				l-3.9-4.9l4.9,3.9c12.5,10,19.2,6.6,19.3,6.6c0.2-0.1,7.3-2.5,9.1-18.3L48.8,0l0.7,6.3c1.8,15.9,8.9,18.3,8.9,18.3
				c0.2,0.1,6.9,3.4,19.4-6.6l4.9-3.9L78.8,19c-10,12.5-6.6,19.2-6.6,19.3c0.1,0.2,2.5,7.3,18.3,9.1l6.3,0.7l-6.3,0.7
				c-15.9,1.8-18.3,8.9-18.3,8.9c-0.1,0.2-3.4,6.9,6.6,19.4l3.9,4.9l-4.9-3.9c-12.5-10-19.2-6.6-19.3-6.6c-0.2,0.1-7.3,2.5-9.1,18.3
				L48.8,96.1z M39.6,70.2c0.8,0.3,6.7,2.6,9.2,14.9c2.6-12.9,8.9-14.9,9.2-15c0.1-0.1,6-3.1,17,4.1c-7.2-11-4.2-16.8-4-17.1
				c0-0.2,2-6.5,14.9-9.1c-12.9-2.6-14.9-8.9-15-9.2c-0.1-0.1-3.1-6,4.1-17c-11,7.2-16.8,4.2-17.1,4c-0.2,0-6.5-2-9.1-14.9
				c-2.6,12.9-9,14.9-9.2,15c-0.1,0.1-6,3.1-17-4.1c7.2,11,4.2,16.8,4,17.1c0,0.2-2,6.5-14.9,9.1c12.9,2.6,14.9,9,15,9.2
				c0.1,0.1,3.1,6-4.1,17C33,67.4,38.9,69.8,39.6,70.2z"/>
		</g>
	</g>
	<g>
		<path d="M57.2,52.9c0,5.4-3.5,8.6-9.9,8.6c-2.5,0-5.3-0.5-6.9-1.2l0.6-5.6c1.4,0.7,3.4,1.2,6.3,1.2c4.1,0,6.6-1,6.6-3.1
			c0-1.9-2.5-3-6.8-3h-5.9V34.6h15.1v5.7H44.6v4.4H47C53.9,44.7,57.2,48.2,57.2,52.9z"/>
	</g>
</g>
</svg>
