<?xml version="1.0" encoding="utf-8"?>
<!-- Generator: Adobe Illustrator 27.7.0, SVG Export Plug-In . SVG Version: 6.00 Build 0)  -->
<svg version="1.1" id="Layer_1" xmlns="http://www.w3.org/2000/svg" xmlns:xlink="http://www.w3.org/1999/xlink" x="0px" y="0px"
	 viewBox="0 0 226.8 104.5" style="enable-background:new 0 0 226.8 104.5;" xml:space="preserve">
<style type="text/css">
	.st0{fill:none;stroke:#000000;stroke-width:2.8346;stroke-linejoin:bevel;stroke-miterlimit:10;}
</style>
<g>
	<g>
		<path d="M42.9,71c0,8.4-3.4,10.8-9.2,9.6c-5.2-1.1-9.8-4.8-8.8-14.4c1.1,0.1,2.2,0.1,3.2,0.1c-0.6,4.5,0.6,7.1,5.5,8.2
			c5.6,1.1,5.9-1.2,5.9-5.5v-8.5c-4.6-0.6-9.2-1.6-13.8-3.2c0-1.8,0-3.6,0-5.5c5.7,1.9,11.4,3.1,17.1,3.5V71z"/>
	</g>
	<g>
		<path d="M66.2,58.9v21c-0.9,0.1-1.7,0.3-2.6,0.4c-0.1-1-0.3-2-0.4-3c-1.9,2.6-4.6,4.3-8.2,4.5c-4.9,0.3-8-3.1-8-7.9V60.4
			c1.1,0,2.1,0,3.2,0V72c0,2.6,1.2,4.1,5.1,3.8c4-0.3,6.4-2.3,7.8-4.1V59.4C64.2,59.2,65.2,59.1,66.2,58.9"/>
	</g>
	<g>
		<path d="M89.2,63.4c0-3.9-3.4-4-7.7-2.7c-4.1,1.2-7.3,3.6-7.3,7c0,3.4,3.1,4.3,7.3,3.2C85.9,69.6,89.2,67.3,89.2,63.4 M92.2,62.4
			c0,6.4-4,12.5-10.7,14.4c-3.4,1-6.1,0.3-7.6-1c-0.1,0.8-0.2,1.7-0.4,2.5c-0.9,0.2-1.7,0.4-2.6,0.6V51.1c1-0.2,1.9-0.4,2.9-0.7v9.8
			c1.4-2.3,4.1-4.6,7.7-5.6C88.2,52.8,92.2,56,92.2,62.4"/>
	</g>
	<g>
		<path d="M96,50.6c1.1-0.4,2.1-0.7,3.2-1.1v21c-1.1,0.4-2.1,0.8-3.2,1.1V50.6z M95.2,44.4c0-1.3,1.1-2.8,2.5-3.3
			c1.3-0.5,2.4,0.2,2.4,1.6c0,1.4-1.1,2.9-2.4,3.3C96.3,46.5,95.2,45.7,95.2,44.4"/>
	</g>
	<g>
		<path d="M104.9,40.6c1.1-0.4,2.1-0.8,3.2-1.2v27.8c-1.1,0.4-2.1,0.8-3.2,1.2V40.6z"/>
	</g>
	<g>
		<path d="M123.4,36c0-1.3,1.1-2.8,2.4-3.2c1.3-0.4,2.4,0.3,2.4,1.6c0,1.3-1.1,2.7-2.4,3.2C124.4,37.9,123.4,37.3,123.4,36
			 M116.3,38.5c0-1.3,1.1-2.8,2.4-3.3c1.3-0.5,2.4,0.2,2.4,1.5c0,1.3-1.1,2.8-2.4,3.2C117.4,40.5,116.3,39.8,116.3,38.5 M129.4,49.6
			v-0.9c-0.3-2.9-3.3-3.5-7.4-2c-4.3,1.5-7.7,4-7.7,7.9c0,3.9,3.3,3.9,7.7,2.3C126.1,55.3,129.2,52.7,129.4,49.6 M132.5,37.6v21
			c-0.8,0.3-1.7,0.5-2.5,0.8c-0.1-0.9-0.2-1.7-0.3-2.6c-1.4,2.2-4.1,4.6-7.7,5.9c-6.6,2.3-10.6-0.4-10.6-7.1c0-6.4,4-12.5,10.6-14.9
			c3.5-1.3,6.2-0.7,7.7,0.7c0.1-1,0.2-2,0.3-3C130.8,38.1,131.7,37.8,132.5,37.6"/>
	</g>
	<g>
		<path d="M155.8,31.7v21c-0.9,0.1-1.7,0.3-2.6,0.5c-0.1-1-0.3-2-0.4-3c-1.9,2.7-4.6,4.5-8.2,5.4c-4.9,1.3-8-1-8-5.8V36.3
			c1.1-0.3,2.1-0.6,3.2-0.9v11.5c0,2.7,1.2,3.7,5.1,2.7c4-1,6.4-3.1,7.8-5V32.3C153.7,32.1,154.8,31.9,155.8,31.7"/>
	</g>
	<g>
		<path d="M195.4,55.3c-1-0.4-2.1-0.7-3.1-1V42.7c0-2.5-1.2-4.3-5.2-5.2c-3.7-0.8-6,0.3-7.4,1.5v12.8c-1.1-0.1-2.1-0.2-3.2-0.3V39.9
			c0-2.6-1.2-4-5.2-4.1c-4.1,0-6.5,1.8-7.9,3.5v12.3c-1.1,0.1-2.1,0.2-3.2,0.3v-21c1.1-0.1,2.1-0.2,3.2-0.3v2.9
			c1.9-2.3,4.6-3.8,8.2-3.8c3.4,0,6,1.7,7.2,4.3c1.9-2.3,4.8-3.4,8.7-2.6c5,1.1,8,5.5,8,10.2V55.3z"/>
	</g>
	<g>
		<path d="M49.8,100.8c-15,0-30-4-45-14.9l-0.6-0.4V18.3l2.2,1.6c34.3,25,67.9,12.8,103.5-0.2c34.7-12.7,70.5-25.8,106,0.1l0.6,0.4
			v67.1l-2.2-1.6C180,60.7,146.4,73,110.8,86C90.8,93.3,70.4,100.8,49.8,100.8z M7,84.1c34.1,24.5,67.5,12.3,102.9-0.7
			C143.9,71,179,58.2,213.8,82V21.6c-34.1-24.5-67.5-12.3-102.9,0.7C76.9,34.7,41.8,47.5,7,23.7V84.1z"/>
	</g>
</g>
<path class="st0" d="M279.8,78.1c-9.6,9.4-23.5,10.7-31.1,3c-7.7-7.7-6-21.7,3.6-31.3c-9.5-9.7-11-23.7-3.3-31.3
	c7.7-7.7,21.8-6,31.3,3.6c0.1-13.6,9-24.5,19.9-24.5c10.9,0.1,19.6,11.1,19.6,24.7c0.1-13.6,9-24.5,19.9-24.5S359.3,9,359.2,22.5
	c9.7-9.5,23.7-11,31.3-3.3c7.6,7.8,6,21.8-3.6,31.3c9.5,9.7,11,23.7,3.3,31.3c-7.7,7.7-21.8,6-31.3-3.6c-0.1,13.6-9,24.5-19.9,24.5
	c-10.9-0.1-19.6-11.1-19.6-24.7c-0.1,13.6-9,24.5-19.9,24.5c-10.9,0-19.6-11.1-19.6-24.7L279.8,78.1z"/>
</svg>
