<?xml version="1.0" encoding="utf-8"?>
<!-- Generator: Adobe Illustrator 27.7.0, SVG Export Plug-In . SVG Version: 6.00 Build 0)  -->
<svg version="1.1" id="Ebene_1" xmlns="http://www.w3.org/2000/svg" xmlns:xlink="http://www.w3.org/1999/xlink" x="0px" y="0px"
	 viewBox="0 0 439.4 226.8" style="enable-background:new 0 0 439.4 226.8;" xml:space="preserve">
<g>
	<g>
		<path d="M7.4,172.2l54.1,25.1l-1.4,13.4L1.7,225l0.8-7.8l49.3-11.7L6.1,183.9L7.4,172.2z"/>
	</g>
	<g>
		<path d="M65,134.1l-14.4,32.4c6.3,1,10.6-4.2,14.3-12.6c2.1-4.7,3.4-8.7,4-12.8l11.2,3.7c0.1,2.2-1.2,7.6-4.2,14.3
			c0,0.1,0,0.1,0,0.1c-6.3,14.2-18.1,18.5-31.9,12.4c-13-5.8-18.8-17.6-12.9-30.6C37.1,127.4,49.6,124.7,65,134.1z M44,163.6
			l11.6-26c-5.6-1.5-9.5,1.5-12.7,8.8C39.7,153.5,39.1,159.8,44,163.6z"/>
	</g>
	<g>
		<path d="M78.8,94.2c-6.9,9-8,14.9-7.6,19l21.2,16.4l-4.3,5.6L51.7,107l4.3-5.6l5.3,4.1c-1.3-5.8,0.7-13.3,6-20.3L78.8,94.2z"/>
	</g>
	<g>
		<path d="M170.7,69.2l-5.9,3.6l-13.3-21.6c-3-4.8-6.7-5.9-14.2-1.3c-6.9,4.2-9.7,9.2-10.8,13.5l14.7,23.9l-5.9,3.6l-13.3-21.6
			c-3-4.8-6.7-5.9-14.2-1.3c-7.7,4.7-10.3,10.4-11,14.9l14.2,23l-6,3.7L80.9,70.5l6-3.7l3.3,5.4c1.1-6.2,4.7-11.7,11.3-15.7
			c6.4-4,12.8-4.1,17.9-1c0.7-6.9,4.5-12.8,11.7-17.2c9.3-5.8,18.6-3.2,24.1,5.6L170.7,69.2z"/>
	</g>
	<g>
		<path d="M168.9,8.1c-0.5-2.9,1.4-5.7,4.3-6.2c2.9-0.5,5.7,1.4,6.2,4.3c0.6,2.9-1.4,5.8-4.3,6.3C172.3,13,169.5,11,168.9,8.1z
			 M173.4,21.8l6.8-1.3l8.4,45.2l-6.8,1.3L173.4,21.8z"/>
	</g>
	<g>
		<path d="M231.8,49.3l2.2,12.8c-1.6,1-5.6,2.3-10.6,2.6c-14.2,0.8-23.5-8.9-24.2-22.7c-0.8-14.2,7.3-24.8,21.6-25.6
			c5.8-0.3,9.1,0.6,11.7,1.7l-1.1,12.8c-2.6-1.1-5.9-1.6-9.4-1.4c-9.4,0.5-16.6,3.5-16.1,12.1c0.4,8.5,7.9,10.7,16.9,10.2
			C225.9,51.5,228.8,50.9,231.8,49.3z"/>
	</g>
	<g>
		<path d="M288.3,54.7l-34.5-8.2c0.2,6.4,6.1,9.7,15,11.8c5.1,1.2,9.2,1.7,13.3,1.6l-1.6,11.7c-2.1,0.5-7.7,0.2-14.8-1.5
			c-0.1,0-0.1,0-0.1,0c-15.1-3.6-21.6-14.4-18.1-29.1c3.3-13.8,13.9-21.7,27.7-18.3C289.8,26,294.8,37.8,288.3,54.7z M255.5,39.5
			l27.7,6.6c0.5-5.8-3.3-9.1-11-10.9C264.7,33.4,258.3,34,255.5,39.5z"/>
	</g>
	<g>
		<path d="M318.8,23.2l6.3,3l-26.1,55l-6.3-3L318.8,23.2z"/>
	</g>
	<g>
		<path d="M340.9,34.9l5.9,3.6l-31.9,51.8l-5.9-3.6L340.9,34.9z"/>
	</g>
	<g>
		<path d="M367,109.5l-26.1-24c-2.9,5.7,0.6,11.4,7.4,17.6c3.8,3.5,7.2,6,10.8,7.9l-7.1,9.4c-2.1-0.6-6.8-3.6-12.2-8.6
			c-0.1-0.1-0.1-0.1-0.1-0.1c-11.4-10.5-11.8-23.1-1.5-34.2c9.6-10.5,22.7-12.1,33.2-2.4C382.3,85.2,380.9,97.9,367,109.5z
			 M345.7,80.2l21,19.3c3.2-4.8,1.6-9.5-4.3-14.9C356.7,79.4,350.9,76.7,345.7,80.2z"/>
	</g>
	<g>
		<path d="M400.2,136.2c-6.1-9.5-11.3-12.6-15.3-13.6l-22.6,14.3l-3.8-5.9l38.8-24.6l3.8,5.9l-5.6,3.6c5.9,0.8,12.3,5.1,17,12.5
			L400.2,136.2z"/>
	</g>
	<g>
		<path d="M417.9,142.9l2.8,6.4l-42,18.7l-2.8-6.4L417.9,142.9z M430.1,135.4c2.7-1.2,5.9,0,7.1,2.8c1.2,2.7,0,5.9-2.7,7.1
			c-2.7,1.2-5.9,0-7.1-2.7C426.2,139.8,427.4,136.6,430.1,135.4z"/>
	</g>
	<g>
		<path d="M436.8,212.8l-45.2,8.4l-1-5.5l5.6-1.8c-4.3-2.4-8.6-7.6-10-15.3c-2.6-14.1,5-24.4,19.5-27.1c13.7-2.5,25.3,4.3,27.9,18.4
			c1.4,7.6-0.8,14-4.1,17.9l6.3-0.4L436.8,212.8z M412,210.5l2-0.4c6.4-1.9,8.5-9,6.9-17.7c-1.7-9.3-5.6-16-14-14.5
			c-8.4,1.5-9.6,9.2-7.9,18.5C400.7,205.2,405.2,211.2,412,210.5z"/>
	</g>
</g>
</svg>
