<?xml version="1.0" encoding="utf-8"?>
<!-- Generator: Adobe Illustrator 28.0.0, SVG Export Plug-In . SVG Version: 6.00 Build 0)  -->
<svg version="1.1" id="Layer_1" xmlns="http://www.w3.org/2000/svg" xmlns:xlink="http://www.w3.org/1999/xlink" x="0px" y="0px"
	 viewBox="0 0 157.3 111" style="enable-background:new 0 0 157.3 111;" xml:space="preserve">
<style type="text/css">
	.st0{fill:#231F20;}
</style>
<g>
	<path class="st0" d="M98.6,110.5c0,0-0.1,0-0.1,0c-9.2-0.1-17.1-7.4-20-17.5c-1.1,3.5-2.7,6.8-5,9.5c-4.1,5-9.4,7.7-15.2,7.7
		c0,0-0.1,0-0.1,0c-5.8,0-11.2-2.8-15.2-7.9c-3.4-4.3-5.5-9.8-6-15.8C26.8,95,13.1,95.8,5.3,88c-4.1-4.1-5.9-9.9-5.1-16.3
		c0.7-5.9,3.5-11.8,8-16.5C-1.3,44.8-2.5,30.2,5.7,22.2c7.9-7.8,21.6-6.8,31.7,1.8c0.5-5.9,2.7-11.4,6.2-15.7
		c4.1-5,9.5-7.8,15.3-7.7C64.6,0.6,70,3.4,74,8.4c2.2,2.8,3.8,6,4.9,9.6C81.9,7.9,89.8,0.7,99,0.7c0,0,0.1,0,0.1,0
		c11,0.1,20.1,10.5,21.2,23.7c4.6-3.8,10-6.2,15.5-6.8C142.2,17,148,18.9,152,23c4.1,4.1,5.9,9.9,5.1,16.3c-0.7,5.9-3.5,11.8-8,16.5
		c4.4,4.8,7.2,10.7,7.8,16.6c0.7,6.4-1.2,12.2-5.3,16.3c-7.9,7.8-21.6,6.8-31.7-1.8c-0.5,5.9-2.7,11.4-6.2,15.7
		C109.7,107.7,104.3,110.5,98.6,110.5z M79.8,84C79.8,84,79.8,84,79.8,84c-0.1,13.2,8.3,23.9,18.7,24c0,0,0.1,0,0.1,0
		c5,0,9.6-2.4,13.2-6.8c3.6-4.5,5.7-10.5,5.7-16.9c0-0.5,0.3-1,0.8-1.2c0.5-0.2,1-0.1,1.4,0.3c9.2,9.3,22.8,11,30.2,3.7
		c3.5-3.5,5.2-8.5,4.6-14.2c-0.6-5.8-3.4-11.4-7.9-16c-0.5-0.5-0.5-1.3,0-1.8c4.6-4.5,7.4-10.2,8.1-15.9c0.7-5.6-0.9-10.7-4.4-14.3
		c-3.5-3.5-8.5-5.2-14.2-4.6c-5.8,0.6-11.4,3.4-16,7.9c-0.4,0.4-0.9,0.5-1.4,0.3c-0.5-0.2-0.8-0.7-0.8-1.2
		c0.1-13.1-8.3-23.9-18.7-23.9C88.7,3.2,80.2,13.9,80.1,27c0,0.7-0.6,1.3-1.3,1.3c0,0,0,0,0,0c-0.7,0-1.3-0.6-1.3-1.3c0,0,0,0,0,0
		c0-6.4-1.9-12.5-5.5-17c-3.5-4.5-8.2-6.9-13.2-7c-5-0.1-9.7,2.4-13.3,6.8c-3.6,4.5-5.7,10.5-5.7,16.9c0,0.5-0.3,1-0.8,1.2
		c-0.5,0.2-1,0.1-1.4-0.3c-9.2-9.3-22.8-11-30.2-3.7c-7.4,7.3-5.9,20.9,3.3,30.2c0.5,0.5,0.5,1.3,0,1.8c-4.6,4.5-7.4,10.2-8.1,15.9
		C2,77.6,3.6,82.6,7.1,86.2c7.3,7.4,20.9,5.9,30.2-3.3c0.4-0.4,0.9-0.5,1.4-0.3c0.5,0.2,0.8,0.7,0.8,1.2c0,6.4,1.9,12.5,5.5,17
		c3.5,4.5,8.2,6.9,13.2,7c5,0,9.7-2.4,13.3-6.8c3.6-4.5,5.7-10.5,5.7-16.9c0-0.7,0.6-1.3,1.3-1.3C79.2,82.7,79.8,83.3,79.8,84z"/>
</g>
</svg>
