<?xml version="1.0" encoding="utf-8"?>
<!-- Generator: Adobe Illustrator 28.0.0, SVG Export Plug-In . SVG Version: 6.00 Build 0)  -->
<svg version="1.1" id="Layer_1" xmlns="http://www.w3.org/2000/svg" xmlns:xlink="http://www.w3.org/1999/xlink" x="0px" y="0px"
	 viewBox="0 0 165 108" style="enable-background:new 0 0 165 108;" xml:space="preserve">
<style type="text/css">
	.st0{fill:#231F20;}
</style>
<g>
	<path class="st0" d="M163.3,108c-0.6,0-1.2-0.4-1.4-1.1c-1.2-4.6-2.6-13.8-4.5-25.5c-2.5-16-5.7-35.9-9.4-51.8
		C142.4,5.5,138,2.9,136.4,2.9c-5.5,0-9.3,29.7-12.1,51.3C120,87.5,117,108,109.4,108c-7.6,0-10.6-20.4-14.9-53.8
		C91.8,32.5,88,2.9,82.5,2.9s-9.3,29.7-12.1,51.3C66.2,87.5,63.2,108,55.6,108C48,108,45,87.5,40.7,54.2
		C37.9,32.5,34.1,2.9,28.6,2.9c-2.3,0-7,3.9-13,29.7c-4,17.5-7.2,38.8-9.8,56c-1.1,7.2-2,13.5-2.8,18.2c-0.1,0.8-0.9,1.3-1.6,1.2
		c-0.8-0.1-1.3-0.9-1.2-1.6c0.8-4.7,1.7-10.9,2.8-18.1C11.5,32.4,18.3,0,28.6,0c7.6,0,10.6,20.4,14.9,53.8
		c2.8,21.6,6.6,51.3,12.1,51.3s9.3-29.7,12.1-51.3C71.9,20.5,74.9,0,82.5,0s10.6,20.4,14.9,53.8c2.8,21.7,6.6,51.3,12.1,51.3
		c5.5,0,9.3-29.7,12.1-51.3C125.8,20.5,128.8,0,136.4,0c10.3,0,16.9,36.7,23.9,80.9c1.8,11.1,3.3,20.7,4.4,25.2
		c0.2,0.8-0.3,1.5-1,1.7C163.6,107.9,163.4,108,163.3,108z"/>
</g>
</svg>
