<?xml version="1.0" encoding="utf-8"?>
<!-- Generator: Adobe Illustrator 28.0.0, SVG Export Plug-In . SVG Version: 6.00 Build 0)  -->
<svg version="1.1" id="Layer_1" xmlns="http://www.w3.org/2000/svg" xmlns:xlink="http://www.w3.org/1999/xlink" x="0px" y="0px"
	 viewBox="0 0 236 108" style="enable-background:new 0 0 236 108;" xml:space="preserve">
<style type="text/css">
	.st0{fill:#231F20;}
</style>
<g>
	<path class="st0" d="M20.4,108c-0.4,0-0.8-0.1-1.2-0.2c-8.4-2.8-13.1-39.1-18-96.7C0.9,7.5,0.6,4.3,0.4,1.6C0.3,0.8,0.9,0.1,1.7,0
		c0.8,0,1.5,0.5,1.5,1.3C3.5,4,3.7,7.2,4,10.8c1.3,15.4,3.3,38.7,6,58.3c4.4,30.9,8.5,35.5,10,36c0.2,0.1,0.4,0.1,0.7-0.1
		c4.5-2.8,7.7-27.5,10.5-49.2c4.4-34.3,7.5-55.4,15.1-55.4C54,0.4,57,20.8,61.3,53.9c2.8,21.5,6.5,51.1,12,51.1s9.2-29.5,12-51.1
		c4.3-33.2,7.2-53.5,14.8-53.5s10.6,20.3,14.8,53.5c2.8,21.5,6.5,51.1,12,51.1s9.2-29.5,12-51.1c4.3-33.2,7.2-53.5,14.8-53.5
		s10.6,20.3,14.8,53.5c2.8,21.5,6.5,51.1,12,51.1c5.5,0,9.2-29.5,12-51.1c4.3-33.2,7.2-53.5,14.8-53.5c10.9,0,16,28,23.1,74.2
		c1.6,10.5,3.3,21.4,5.1,31.6c0.1,0.8-0.4,1.5-1.1,1.6c-0.8,0.1-1.5-0.4-1.6-1.1c-1.8-10.2-3.5-21.1-5.1-31.6
		c-5.2-33.7-11.1-71.8-20.3-71.8c-5.5,0-9.2,29.5-12,51.1c-4.3,33.2-7.2,53.5-14.8,53.5c-7.6,0-10.6-20.3-14.8-53.5
		c-2.8-21.5-6.5-51.1-12-51.1s-9.2,29.5-12,51.1c-4.3,33.2-7.2,53.5-14.8,53.5s-10.6-20.3-14.8-53.5c-2.8-21.5-6.5-51.1-12-51.1
		s-9.2,29.5-12,51.1c-4.3,33.2-7.2,53.5-14.8,53.5S62.7,87.5,58.5,54.3c-2.8-21.5-6.5-51.1-12-51.1c-1,0-3.7,1.6-6.7,15.9
		c-2.1,10.1-3.9,23.8-5.6,37c-3.8,29.7-6.5,47.9-11.8,51.2C21.7,107.8,21.1,108,20.4,108z"/>
</g>
</svg>
