<?xml version="1.0" encoding="utf-8"?>
<!-- Generator: Adobe Illustrator 27.7.0, SVG Export Plug-In . SVG Version: 6.00 Build 0)  -->
<svg version="1.1" id="Layer_1" xmlns="http://www.w3.org/2000/svg" xmlns:xlink="http://www.w3.org/1999/xlink" x="0px" y="0px"
	 viewBox="0 0 368 473" style="enable-background:new 0 0 368 473;" xml:space="preserve">
<style type="text/css">
	.st0{fill:#C8B0D1;}
	.st1{fill:#007D48;}
	.st2{fill:#FF6B00;}
</style>
<g>
	<path class="st0" d="M30.6,145.6c-1.2,0-2.4-0.2-3.5-0.6c-7.1-2.4-10.5-11.5-12.9-20.1c-2.2-7.9-4.2-18.4-6.1-32.1
		C4.7,68.4,2.3,39.6,0.6,20.5c-0.4-4.5-0.7-8.3-1-11.6C-0.8,4.4,2.6,0.4,7.1,0c4.5-0.4,8.5,2.9,8.9,7.4c0.3,3.3,0.6,7.2,1,11.7
		c1.5,17.6,3.7,44.1,6.8,67c1.7,12.4,3.4,22.5,5.2,30.1c0.5,2,0.9,3.7,1.3,5.2c0.6-2.5,1.3-5.7,2.1-9.8c1.9-10.7,3.7-24.3,5.4-37.4
		c2.1-16.4,4.3-33.4,7-46.3c1.5-7.3,3.2-12.8,4.9-16.8c1.2-2.7,2.6-4.9,4.1-6.5c3.2-3.4,6.6-4.1,8.9-4.1c3.7,0,9,1.8,12.9,10.3
		c1.8,3.9,3.4,9.2,4.9,16.3c2.6,12.4,4.8,28.9,6.8,44.9c1.7,13.6,3.5,27.6,5.6,38.7c1,5.4,1.9,9.3,2.7,12.1
		c0.8-2.8,1.7-6.8,2.7-12.1c2.1-11.1,3.9-25.1,5.6-38.7c2-16,4.2-32.5,6.8-44.9c1.5-7.1,3.1-12.4,4.9-16.3
		c3.9-8.5,9.2-10.3,12.9-10.3c3.7,0,9,1.8,12.9,10.3c1.8,3.9,3.4,9.2,4.9,16.3c2.6,12.4,4.8,28.9,6.8,44.9
		c1.7,13.6,3.5,27.6,5.6,38.7c1,5.4,1.9,9.3,2.7,12.1c0.8-2.8,1.7-6.8,2.7-12.1c2.1-11.1,3.9-25.1,5.6-38.7c2-16,4.2-32.5,6.8-44.9
		c1.5-7.1,3.1-12.4,4.9-16.3c3.9-8.5,9.2-10.3,12.9-10.3s9,1.8,12.9,10.3c1.8,3.9,3.4,9.2,4.9,16.3c2.6,12.4,4.8,28.9,6.8,44.9
		c1.7,13.6,3.5,27.6,5.6,38.7c1,5.4,1.9,9.3,2.7,12.1c0.8-2.8,1.7-6.8,2.7-12.1c2.1-11.1,3.9-25.1,5.6-38.7c2-16,4.2-32.5,6.8-44.9
		c1.5-7.1,3.1-12.4,4.9-16.3c3.9-8.5,9.2-10.3,12.9-10.3s9,1.8,12.9,10.3c1.8,3.9,3.4,9.2,4.9,16.3c2.6,12.4,4.8,28.9,6.8,44.9
		c1.7,13.6,3.5,27.6,5.6,38.7c1,5.4,1.9,9.3,2.7,12.1c0.8-2.8,1.7-6.8,2.7-12.1c2.1-11.1,3.9-25.1,5.6-38.7c2-16,4.2-32.5,6.8-44.9
		c1.5-7.1,3.1-12.4,4.9-16.3c3.9-8.5,9.2-10.3,12.9-10.3c9.6,0,14.5,11,16.1,14.6c2.7,6.1,5.3,14.6,7.9,25.8
		c4.7,19.8,8.5,44.4,11.6,64.1c2.1,13.4,3.9,25.1,5.3,30.2c1.1,4.4-1.5,8.8-5.9,10c-4.4,1.1-8.8-1.5-10-5.9
		c-1.5-5.9-3.3-17.3-5.6-31.8c-2.8-17.6-6.2-39.5-10.2-57.8c-3.5-16-6.5-24.5-8.5-28.9c-1,2.9-2.1,7.4-3.5,14.4
		c-2.1,11.1-3.9,25.1-5.6,38.7c-2,16-4.2,32.5-6.8,44.9c-1.5,7.1-3.1,12.4-4.9,16.3c-3.9,8.5-9.2,10.3-12.9,10.3
		c-3.7,0-9-1.8-12.9-10.3c-1.8-3.9-3.4-9.2-4.9-16.3c-2.6-12.4-4.8-28.9-6.8-44.9c-1.7-13.6-3.5-27.6-5.6-38.7
		c-1-5.4-1.9-9.3-2.7-12.1c-0.8,2.8-1.7,6.8-2.7,12.1c-2.1,11.1-3.9,25.1-5.6,38.7c-2,16-4.2,32.5-6.8,44.9
		c-1.5,7.1-3.1,12.4-4.9,16.3c-3.9,8.5-9.2,10.3-12.9,10.3s-9-1.8-12.9-10.3c-1.8-3.9-3.4-9.2-4.9-16.3c-2.6-12.4-4.8-28.9-6.8-44.9
		c-1.7-13.6-3.5-27.6-5.6-38.7c-1-5.4-1.9-9.3-2.7-12.1c-0.8,2.8-1.7,6.8-2.7,12.1c-2.1,11.1-3.9,25.1-5.6,38.7
		c-2,16-4.2,32.5-6.8,44.9c-1.5,7.1-3.1,12.4-4.9,16.3c-3.9,8.5-9.2,10.3-12.9,10.3s-9-1.8-12.9-10.3c-1.8-3.9-3.4-9.2-4.9-16.3
		c-2.6-12.4-4.8-28.9-6.8-44.9c-1.7-13.6-3.5-27.6-5.6-38.7c-1-5.4-1.9-9.3-2.7-12.1c-0.8,2.8-1.7,6.8-2.7,12.1
		c-2.1,11.1-3.9,25.1-5.6,38.7c-2,16-4.2,32.5-6.8,44.9c-1.5,7.1-3.1,12.4-4.9,16.3c-3.9,8.5-9.2,10.3-12.9,10.3
		c-3.7,0-9-1.8-12.9-10.3c-1.8-3.9-3.4-9.2-4.9-16.3c-2.6-12.4-4.8-28.9-6.8-44.9c-1.7-13.6-3.5-27.6-5.6-38.7
		c-1-5.3-1.9-9.2-2.7-12c-0.9,3-1.8,7.2-2.9,12.9c-2.2,11.5-4,26-5.8,40.1c-5.8,44.7-8.8,62.2-17.5,67.6
		C34.6,145,32.6,145.6,30.6,145.6z M33.8,130.3C33.8,130.3,33.8,130.3,33.8,130.3S33.8,130.3,33.8,130.3z"/>
</g>
<g>
	<path class="st1" d="M31,473c-1.2,0-2.4-0.2-3.5-0.6c-7.1-2.4-10.5-11.5-12.9-20.1c-2.2-7.9-4.2-18.4-6.1-32.1
		C5.1,395.9,2.6,367,1,347.9c-0.4-4.5-0.7-8.3-1-11.6c-0.4-4.5,2.9-8.5,7.4-8.9c4.5-0.4,8.5,2.9,8.9,7.4c0.3,3.3,0.6,7.2,1,11.7
		c1.5,17.6,3.7,44.1,6.8,67c1.7,12.4,3.4,22.5,5.2,30.1c0.5,2,0.9,3.7,1.3,5.2c0.6-2.5,1.3-5.7,2.1-9.8c1.9-10.7,3.7-24.3,5.4-37.4
		c2.1-16.4,4.3-33.4,7-46.3c1.5-7.3,3.2-12.8,4.9-16.8c1.2-2.7,2.6-4.9,4.1-6.5c3.2-3.4,6.6-4.1,8.9-4.1c3.7,0,9,1.8,12.9,10.3
		c1.8,3.9,3.4,9.2,4.9,16.3c2.6,12.4,4.8,28.9,6.8,44.9c1.7,13.6,3.5,27.6,5.6,38.7c1,5.4,1.9,9.3,2.7,12.1
		c0.8-2.8,1.7-6.8,2.7-12.1c2.1-11.1,3.9-25.1,5.6-38.7c2-16,4.2-32.5,6.8-44.9c1.5-7.1,3.1-12.4,4.9-16.3
		c3.9-8.5,9.2-10.3,12.9-10.3c3.7,0,9,1.8,12.9,10.3c1.8,3.9,3.4,9.2,4.9,16.3c2.6,12.4,4.8,28.9,6.8,44.9
		c1.7,13.6,3.5,27.6,5.6,38.7c1,5.4,1.9,9.3,2.7,12.1c0.8-2.8,1.7-6.8,2.7-12.1c2.1-11.1,3.9-25.1,5.6-38.7c2-16,4.2-32.5,6.8-44.9
		c1.5-7.1,3.1-12.4,4.9-16.3c3.9-8.5,9.2-10.3,12.9-10.3c3.7,0,9,1.8,12.9,10.3c1.8,3.9,3.4,9.2,4.9,16.3
		c2.6,12.4,4.8,28.9,6.8,44.9c1.7,13.6,3.5,27.6,5.6,38.7c1,5.4,1.9,9.3,2.7,12.1c0.8-2.8,1.7-6.8,2.7-12.1
		c2.1-11.1,3.9-25.1,5.6-38.7c2-16,4.2-32.5,6.8-44.9c1.5-7.1,3.1-12.4,4.9-16.3c3.9-8.5,9.2-10.3,12.9-10.3c3.7,0,9,1.8,12.9,10.3
		c1.8,3.9,3.4,9.2,4.9,16.3c2.6,12.4,4.8,28.9,6.8,44.9c1.7,13.6,3.5,27.6,5.6,38.7c1,5.4,1.9,9.3,2.7,12.1
		c0.8-2.8,1.7-6.8,2.7-12.1c2.1-11.1,3.9-25.1,5.6-38.7c2-16,4.2-32.5,6.8-44.9c1.5-7.1,3.1-12.4,4.9-16.3
		c3.9-8.5,9.2-10.3,12.9-10.3c9.6,0,14.5,11,16.1,14.6c2.7,6.1,5.3,14.6,7.9,25.8c4.7,19.8,8.5,44.4,11.6,64.1
		c2.1,13.4,3.9,25.1,5.3,30.2c1.1,4.4-1.5,8.8-5.9,10c-4.4,1.1-8.8-1.5-10-5.9c-1.5-5.9-3.3-17.3-5.6-31.8
		c-2.8-17.6-6.2-39.5-10.2-57.8c-3.5-16-6.5-24.5-8.5-28.9c-1,2.9-2.1,7.4-3.5,14.4c-2.1,11.1-3.9,25.1-5.6,38.7
		c-2,16-4.2,32.5-6.8,44.9c-1.5,7.1-3.1,12.4-4.9,16.3c-3.9,8.5-9.2,10.3-12.9,10.3c-3.7,0-9-1.8-12.9-10.3
		c-1.8-3.9-3.4-9.2-4.9-16.3c-2.6-12.4-4.8-28.9-6.8-44.9c-1.7-13.6-3.5-27.6-5.6-38.7c-1-5.4-1.9-9.3-2.7-12.1
		c-0.8,2.8-1.7,6.8-2.7,12.1c-2.1,11.1-3.9,25.1-5.6,38.7c-2,16-4.2,32.5-6.8,44.9c-1.5,7.1-3.1,12.4-4.9,16.3
		c-3.9,8.5-9.2,10.3-12.9,10.3s-9-1.8-12.9-10.3c-1.8-3.9-3.4-9.2-4.9-16.3c-2.6-12.4-4.8-28.9-6.8-44.9
		c-1.7-13.6-3.5-27.6-5.6-38.7c-1-5.4-1.9-9.3-2.7-12.1c-0.8,2.8-1.7,6.8-2.7,12.1c-2.1,11.1-3.9,25.1-5.6,38.7
		c-2,16-4.2,32.5-6.8,44.9c-1.5,7.1-3.1,12.4-4.9,16.3c-3.9,8.5-9.2,10.3-12.9,10.3s-9-1.8-12.9-10.3c-1.8-3.9-3.4-9.2-4.9-16.3
		c-2.6-12.4-4.8-28.9-6.8-44.9c-1.7-13.6-3.5-27.6-5.6-38.7c-1-5.4-1.9-9.3-2.7-12.1c-0.8,2.8-1.7,6.8-2.7,12.1
		c-2.1,11.1-3.9,25.1-5.6,38.7c-2,16-4.2,32.5-6.8,44.9c-1.5,7.1-3.1,12.4-4.9,16.3c-3.9,8.5-9.2,10.3-12.9,10.3
		c-3.7,0-9-1.8-12.9-10.3c-1.8-3.9-3.4-9.2-4.9-16.3c-2.6-12.4-4.8-28.9-6.8-44.9c-1.7-13.6-3.5-27.6-5.6-38.7
		c-1-5.3-1.9-9.2-2.7-12c-0.9,3-1.8,7.2-2.9,12.9c-2.2,11.5-4,26-5.8,40.1c-5.8,44.7-8.8,62.2-17.5,67.6C35,472.4,33,473,31,473z
		 M34.2,457.8C34.2,457.8,34.2,457.8,34.2,457.8S34.2,457.8,34.2,457.8z"/>
</g>
<g>
	<path class="st2" d="M31,309.3c-1.2,0-2.4-0.2-3.5-0.6c-7.1-2.4-10.5-11.5-12.9-20.1c-2.2-7.9-4.2-18.4-6.1-32.1
		c-3.4-24.3-5.9-53.1-7.5-72.2c-0.4-4.5-0.7-8.3-1-11.6c-0.4-4.5,2.9-8.5,7.4-8.9c4.5-0.4,8.5,2.9,8.9,7.4c0.3,3.3,0.6,7.2,1,11.7
		c1.5,17.6,3.7,44.1,6.8,67c1.7,12.4,3.4,22.5,5.2,30.1c0.5,2,0.9,3.7,1.3,5.2c0.6-2.5,1.3-5.7,2.1-9.8c1.9-10.7,3.7-24.3,5.4-37.4
		c2.1-16.4,4.3-33.4,7-46.3c1.5-7.3,3.2-12.8,4.9-16.8c1.2-2.7,2.6-4.9,4.1-6.5c3.2-3.4,6.6-4.1,8.9-4.1c3.7,0,9,1.8,12.9,10.3
		c1.8,3.9,3.4,9.2,4.9,16.3c2.6,12.4,4.8,28.9,6.8,44.9c1.7,13.6,3.5,27.6,5.6,38.7c1,5.4,1.9,9.3,2.7,12.1
		c0.8-2.8,1.7-6.8,2.7-12.1c2.1-11.1,3.9-25.1,5.6-38.7c2-16,4.2-32.5,6.8-44.9c1.5-7.1,3.1-12.4,4.9-16.3
		c3.9-8.5,9.2-10.3,12.9-10.3c3.7,0,9,1.8,12.9,10.3c1.8,3.9,3.4,9.2,4.9,16.3c2.6,12.4,4.8,28.9,6.8,44.9
		c1.7,13.6,3.5,27.6,5.6,38.7c1,5.4,1.9,9.3,2.7,12.1c0.8-2.8,1.7-6.8,2.7-12.1c2.1-11.1,3.9-25.1,5.6-38.7c2-16,4.2-32.5,6.8-44.9
		c1.5-7.1,3.1-12.4,4.9-16.3c3.9-8.5,9.2-10.3,12.9-10.3c3.7,0,9,1.8,12.9,10.3c1.8,3.9,3.4,9.2,4.9,16.3
		c2.6,12.4,4.8,28.9,6.8,44.9c1.7,13.6,3.5,27.6,5.6,38.7c1,5.4,1.9,9.3,2.7,12.1c0.8-2.8,1.7-6.8,2.7-12.1
		c2.1-11.1,3.9-25.1,5.6-38.7c2-16,4.2-32.5,6.8-44.9c1.5-7.1,3.1-12.4,4.9-16.3c3.9-8.5,9.2-10.3,12.9-10.3c3.7,0,9,1.8,12.9,10.3
		c1.8,3.9,3.4,9.2,4.9,16.3c2.6,12.4,4.8,28.9,6.8,44.9c1.7,13.6,3.5,27.6,5.6,38.7c1,5.4,1.9,9.3,2.7,12.1
		c0.8-2.8,1.7-6.8,2.7-12.1c2.1-11.1,3.9-25.1,5.6-38.7c2-16,4.2-32.5,6.8-44.9c1.5-7.1,3.1-12.4,4.9-16.3
		c3.9-8.5,9.2-10.3,12.9-10.3c9.6,0,14.5,11,16.1,14.6c2.7,6.1,5.3,14.6,7.9,25.8c4.7,19.8,8.5,44.4,11.6,64.1
		c2.1,13.4,3.9,25.1,5.3,30.2c1.1,4.4-1.5,8.8-5.9,10c-4.4,1.1-8.8-1.5-10-5.9c-1.5-5.9-3.3-17.3-5.6-31.8
		c-2.8-17.6-6.2-39.5-10.2-57.8c-3.5-16-6.5-24.5-8.5-28.9c-1,2.9-2.1,7.4-3.5,14.4c-2.1,11.1-3.9,25.1-5.6,38.7
		c-2,16-4.2,32.5-6.8,44.9c-1.5,7.1-3.1,12.4-4.9,16.3c-3.9,8.5-9.2,10.3-12.9,10.3c-3.7,0-9-1.8-12.9-10.3
		c-1.8-3.9-3.4-9.2-4.9-16.3c-2.6-12.4-4.8-28.9-6.8-44.9c-1.7-13.6-3.5-27.6-5.6-38.7c-1-5.4-1.9-9.3-2.7-12.1
		c-0.8,2.8-1.7,6.8-2.7,12.1c-2.1,11.1-3.9,25.1-5.6,38.7c-2,16-4.2,32.5-6.8,44.9c-1.5,7.1-3.1,12.4-4.9,16.3
		c-3.9,8.5-9.2,10.3-12.9,10.3s-9-1.8-12.9-10.3c-1.8-3.9-3.4-9.2-4.9-16.3c-2.6-12.4-4.8-28.9-6.8-44.9
		c-1.7-13.6-3.5-27.6-5.6-38.7c-1-5.4-1.9-9.3-2.7-12.1c-0.8,2.8-1.7,6.8-2.7,12.1c-2.1,11.1-3.9,25.1-5.6,38.7
		c-2,16-4.2,32.5-6.8,44.9c-1.5,7.1-3.1,12.4-4.9,16.3c-3.9,8.5-9.2,10.3-12.9,10.3s-9-1.8-12.9-10.3c-1.8-3.9-3.4-9.2-4.9-16.3
		c-2.6-12.4-4.8-28.9-6.8-44.9c-1.7-13.6-3.5-27.6-5.6-38.7c-1-5.4-1.9-9.3-2.7-12.1c-0.8,2.8-1.7,6.8-2.7,12.1
		c-2.1,11.1-3.9,25.1-5.6,38.7c-2,16-4.2,32.5-6.8,44.9c-1.5,7.1-3.1,12.4-4.9,16.3c-3.9,8.5-9.2,10.3-12.9,10.3
		c-3.7,0-9-1.8-12.9-10.3c-1.8-3.9-3.4-9.2-4.9-16.3c-2.6-12.4-4.8-28.9-6.8-44.9c-1.7-13.6-3.5-27.6-5.6-38.7
		c-1-5.3-1.9-9.2-2.7-12c-0.9,3-1.8,7.2-2.9,12.9c-2.2,11.5-4,26-5.8,40.1c-5.8,44.7-8.8,62.2-17.5,67.6C35,308.7,33,309.3,31,309.3
		z M34.2,294C34.2,294,34.2,294,34.2,294S34.2,294,34.2,294z"/>
</g>
</svg>
