<?xml version="1.0" encoding="utf-8"?>
<!-- Generator: Adobe Illustrator 27.7.0, SVG Export Plug-In . SVG Version: 6.00 Build 0)  -->
<svg version="1.1" id="Layer_1" xmlns="http://www.w3.org/2000/svg" xmlns:xlink="http://www.w3.org/1999/xlink" x="0px" y="0px"
	 viewBox="0 0 154.3 107.9" style="enable-background:new 0 0 154.3 107.9;" xml:space="preserve">
<g>
	<path d="M97.9,107.9C97.9,107.9,97.9,107.9,97.9,107.9c-5.8,0-11.1-2.8-15.1-7.8c-2.1-2.6-3.6-5.6-4.6-8.9
		c-3.1,9.7-10.8,16.5-19.7,16.5c0,0-0.1,0-0.1,0c-4.8,0-9.5-2.1-13.3-5.8c-4.3-4.3-7-10.5-7.6-17.2c-10,8.2-23.5,8.8-31,1.2
		c-4-4-5.8-9.8-5.1-16.1c0.7-5.8,3.4-11.5,7.7-16.2c-4.9-5.4-7.7-12.2-7.7-18.8c0-5.3,2-10.1,5.4-13.5c3.4-3.4,8.2-5.2,13.4-5.2
		c0,0,0.1,0,0.1,0c6.1,0,12.3,2.5,17.5,6.8C39.2,10,48.2,0,58.9,0C59,0,59,0,59,0c5.7,0,11,2.8,15,7.8c2.1,2.6,3.6,5.6,4.6,8.9
		C81.8,7.1,89.4,0.2,98.4,0.2c0,0,0.1,0,0.1,0c4.9,0,9.6,2.1,13.3,5.9c4.3,4.3,7,10.5,7.5,17.1c5.2-4.2,11.4-6.6,17.4-6.6
		c0,0,0.1,0,0.2,0c5.3,0,10.1,2,13.5,5.4c7.9,8,6.7,22.3-2.7,32.3c4.9,5.4,7.7,12.2,7.7,18.8c0,5.3-2,10.1-5.4,13.5
		c-3.4,3.4-8.2,5.2-13.4,5.2c0,0-0.1,0-0.1,0c-6.1,0-12.3-2.5-17.5-6.8C117.6,98,108.7,107.9,97.9,107.9z M79.7,81.8L79.7,81.8
		c0,6.2,1.9,12.1,5.4,16.5c3.4,4.3,8,6.7,12.8,6.7c0,0,0.1,0,0.1,0c10.1,0,18.3-10.3,18.4-23l2.4-1c5,5.1,11.5,8,17.7,8
		c0,0,0.1,0,0.1,0c4.6,0,8.5-1.5,11.4-4.4c3-2.9,4.5-6.9,4.6-11.5c0-6.3-2.8-12.8-7.8-17.8l0-2c9.1-9,10.7-22.1,3.6-29.3
		c-2.9-3-6.9-4.5-11.5-4.6c0,0-0.1,0-0.1,0c-6.2,0-12.7,2.8-17.7,7.8l-2.4-1c0-7.1-2.4-13.8-6.9-18.2c-3.2-3.3-7.1-5-11.3-5
		c0,0,0,0-0.1,0c-10.1,0-18.3,10.3-18.4,23l-2.8,0c0-6.2-1.9-12.1-5.4-16.5c-3.4-4.3-8-6.7-12.8-6.7c0,0-0.1,0-0.1,0
		c-10,0-18.3,10.3-18.4,23.1l-2.4,1c-5-5.1-11.5-8-17.7-8c0,0-0.1,0-0.1,0c-4.6,0-8.5,1.5-11.4,4.4c-3,2.9-4.5,6.9-4.6,11.5
		c0,6.3,2.8,12.8,7.8,17.8l0,2C7.7,59,4.9,64.5,4.3,70.1c-0.6,5.5,0.9,10.4,4.3,13.8c7,7.1,20,5.7,29.1-3.1l0.2-0.2l2.4,1
		c0,7.1,2.5,13.8,6.9,18.2c3.2,3.3,7.1,5,11.3,5c0,0,0.1,0,0.1,0c10.1,0,18.3-10.3,18.4-23l0,0L79.7,81.8z"/>
</g>
</svg>
