<?xml version="1.0" encoding="utf-8"?>
<!-- Generator: Adobe Illustrator 27.7.0, SVG Export Plug-In . SVG Version: 6.00 Build 0)  -->
<svg version="1.1" id="Ebene_1" xmlns="http://www.w3.org/2000/svg" xmlns:xlink="http://www.w3.org/1999/xlink" x="0px" y="0px"
	 viewBox="0 0 1453.7 575" style="enable-background:new 0 0 1453.7 575;" xml:space="preserve">
<style type="text/css">
	.st0{fill:#C7AFD0;}
</style>
<g>
	<path class="st0" d="M122.5,575c-4.6,0-9.3-0.8-13.9-2.3c-28.2-9.5-41.5-45.5-50.8-79.5c-8.5-31.2-16.4-72.8-24.1-127
		C20.1,270.3,10.5,156.4,4.1,81C2.6,63.4,1.3,48.2,0.1,35.2C-1.5,17.4,11.7,1.7,29.5,0.1C47.2-1.5,63,11.7,64.6,29.5
		c1.2,13.1,2.5,28.4,4,46.1c5.9,69.4,14.8,174.4,26.9,264.7c6.6,48.9,13.5,88.9,20.5,118.7c1.8,7.8,3.6,14.6,5.3,20.5
		c2.5-10,5.2-22.6,8.1-38.7c7.7-42.2,14.6-95.9,21.3-147.9c8.4-64.9,17-132,27.7-182.7c6.1-28.9,12.5-50.6,19.5-66.4
		C202.7,32.9,208,24.5,214,18c12.5-13.4,26.1-16.3,35.2-16.3c14.8,0,35.6,7.1,51,40.7c7,15.3,13.3,36.3,19.3,64.2
		c10.5,48.9,18.8,114.2,26.9,177.2c6.9,53.6,14,109.1,22.2,152.9c4,21.1,7.6,36.6,10.9,47.8c3.2-11.3,6.9-26.7,10.8-47.8
		c8.2-43.8,15.3-99.2,22.2-152.9c8.1-63.1,16.5-128.3,26.9-177.2c6-28,12.3-49,19.3-64.2c15.4-33.6,36.2-40.7,51-40.7
		s35.6,7.1,51,40.7c7,15.3,13.3,36.3,19.3,64.2c10.5,48.9,18.8,114.2,26.9,177.2c6.9,53.6,14,109.1,22.2,152.9
		c4,21.1,7.6,36.6,10.9,47.8c3.2-11.3,6.9-26.7,10.8-47.8c8.2-43.8,15.3-99.2,22.2-152.9c8.1-63.1,16.5-128.3,26.9-177.2
		c6-28,12.3-49,19.3-64.2c15.4-33.6,36.2-40.7,51-40.7s35.6,7.1,51,40.7c7,15.3,13.3,36.3,19.3,64.2
		c10.5,48.9,18.8,114.2,26.9,177.2c6.9,53.6,14,109.1,22.2,152.9c4,21.1,7.6,36.6,10.8,47.8c3.2-11.3,6.9-26.7,10.8-47.8
		c8.2-43.8,15.3-99.2,22.2-152.9c8.1-63.1,16.4-128.3,26.9-177.2c6-28,12.3-49,19.3-64.2c15.4-33.6,36.2-40.7,51-40.7
		c14.8,0,35.6,7.1,51,40.7c7,15.3,13.3,36.3,19.3,64.2c10.5,48.9,18.8,114.2,26.9,177.2c6.9,53.6,14,109.1,22.2,152.9
		c4,21.1,7.6,36.6,10.8,47.8c3.2-11.3,6.9-26.7,10.8-47.8c8.2-43.8,15.3-99.2,22.2-152.9c8.1-63.1,16.5-128.3,26.9-177.2
		c6-28,12.3-49,19.3-64.2c15.4-33.6,36.2-40.7,51-40.7c38.1,0,57.2,43.5,63.4,57.8c10.6,24.2,20.9,57.5,31.3,101.8
		c18.4,78.2,33.7,175.2,46,253.1c8.4,53.1,15.6,99,20.8,119.4c4.4,17.3-6,34.9-23.3,39.4c-17.3,4.4-34.9-6-39.4-23.3
		c-6-23.4-13.1-68.4-22.1-125.4c-11-69.5-24.6-156.1-40.5-228.3c-13.9-63.3-25.6-96.7-33.6-114c-3.8,11.5-8.5,29.4-13.6,57
		c-8.2,43.8-15.3,99.2-22.2,152.9c-8.1,63.1-16.5,128.3-26.9,177.2c-6,28-12.3,49-19.3,64.2c-15.4,33.6-36.2,40.7-51,40.7
		s-35.6-7.1-51-40.7c-7-15.3-13.3-36.3-19.3-64.2c-10.5-48.9-18.8-114.2-26.9-177.2c-6.9-53.6-14-109.1-22.2-152.9
		c-4-21.1-7.6-36.6-10.8-47.8c-3.2,11.3-6.9,26.7-10.8,47.8c-8.2,43.8-15.3,99.2-22.2,152.9c-8.1,63.1-16.4,128.3-26.9,177.2
		c-6,28-12.3,49-19.3,64.2c-15.4,33.6-36.2,40.7-51,40.7c-14.8,0-35.6-7.1-51-40.7c-7-15.3-13.3-36.3-19.3-64.2
		c-10.5-48.9-18.8-114.2-26.9-177.2c-6.9-53.6-14-109.1-22.2-152.9c-4-21.1-7.6-36.6-10.8-47.8c-3.2,11.3-6.9,26.7-10.8,47.8
		c-8.2,43.8-15.3,99.2-22.2,152.9c-8.1,63.1-16.5,128.3-26.9,177.2c-6,28-12.3,49-19.3,64.2c-15.4,33.6-36.2,40.7-51,40.7
		c-14.8,0-35.6-7.1-51-40.7c-7-15.3-13.3-36.3-19.3-64.2c-10.5-48.9-18.8-114.2-26.9-177.2c-6.9-53.6-14-109.1-22.2-152.9
		c-4-21.1-7.6-36.6-10.8-47.8c-3.2,11.3-6.9,26.7-10.9,47.8c-8.2,43.8-15.3,99.2-22.2,152.9c-8.1,63.1-16.4,128.3-26.9,177.2
		c-6,28-12.3,49-19.3,64.2c-15.4,33.6-36.2,40.7-51,40.7c-14.8,0-35.6-7.1-51-40.7c-7-15.3-13.3-36.3-19.3-64.2
		c-10.5-48.9-18.8-114.2-26.9-177.2c-6.9-53.6-14-109.1-22.2-152.9c-3.9-20.9-7.6-36.2-10.7-47.5c-3.4,11.9-7.3,28.3-11.5,51
		c-8.5,45.6-15.9,102.9-23,158.3c-22.8,176.7-34.7,245.5-69.2,267.1C138.4,572.7,130.5,575,122.5,575z M135.2,514.8
		C135.2,514.8,135.2,514.8,135.2,514.8S135.2,514.8,135.2,514.8z"/>
</g>
</svg>
