<?xml version="1.0" encoding="utf-8"?>
<!-- Generator: Adobe Illustrator 27.7.0, SVG Export Plug-In . SVG Version: 6.00 Build 0)  -->
<svg version="1.1" id="Layer_1" xmlns="http://www.w3.org/2000/svg" xmlns:xlink="http://www.w3.org/1999/xlink" x="0px" y="0px"
	 viewBox="0 0 1080 1920" style="enable-background:new 0 0 1080 1920;" xml:space="preserve">
<style type="text/css">
	.st0{fill:#FF6B00;}
	.st1{fill:#007D48;}
	.st2{fill:#C7AFD0;}
</style>
<g>
	<path class="st1" d="M1079.7,680.3c0,322.7-241.8,584.3-540,584.3S-0.3,1003-0.3,680.3H1079.7z"/>
	<g>
		<path class="st0" d="M204.4,1443.7c0,79.8,50,144.5,111.6,144.5s111.6-64.7,111.6-144.5c0,79.8,50,144.5,111.6,144.5
			c61.6,0,111.6-64.7,111.6-144.5c0,79.8,50,144.5,111.6,144.5c61.6,0,111.6-64.7,111.6-144.5c54.4,56.4,133.7,65.5,177.4,20.2
			c43.6-45.3,34.8-127.7-19.5-184.1c54.4-56.4,63.1-138.9,19.5-184.1c-43.6-45.3-123-36.2-177.4,20.2c0-79.7-50-144.4-111.6-144.4
			s-111.6,64.7-111.6,144.5c0-79.8-50-144.5-111.6-144.5c-61.6,0-111.6,64.7-111.6,144.5c0-79.8-50-144.5-111.6-144.5
			s-111.6,64.7-111.6,144.5c-54.4-56.4-133.7-65.5-177.4-20.2c-43.6,45.3-34.8,127.7,19.5,184c-54.4,56.4-63.1,138.9-19.5,184.1
			C70.7,1509.2,150.1,1500.1,204.4,1443.7"/>
	</g>
	<g>
		<path class="st2" d="M111.6,852.3c-4.2,0-8.4-0.7-12.6-2.1c-25.5-8.6-37.5-41.2-46-72c-7.7-28.3-14.9-65.9-21.8-115
			c-12.3-86.8-21-189.9-26.8-258.1c-1.4-15.9-2.5-29.7-3.6-41.4c-1.4-16.1,10.4-30.3,26.5-31.8c16.1-1.5,30.3,10.4,31.8,26.5
			c1.1,11.8,2.2,25.7,3.6,41.7C68,463,76.1,558,87.1,639.8c5.9,44.3,12.2,80.4,18.5,107.5c1.7,7.1,3.3,13.2,4.8,18.5
			c2.2-9,4.7-20.5,7.3-35c7-38.2,13.2-86.8,19.3-133.9c7.6-58.7,15.4-119.5,25.1-165.4c5.5-26.2,11.3-45.8,17.7-60.1
			c4.4-9.8,9.2-17.4,14.6-23.3c11.3-12.2,23.6-14.7,31.9-14.7c13.4,0,32.2,6.4,46.2,36.8c6.3,13.8,12,32.8,17.4,58.1
			c9.5,44.3,17,103.3,24.4,160.4c6.2,48.5,12.7,98.8,20.1,138.4c3.6,19.1,6.9,33.1,9.8,43.3c2.9-10.2,6.2-24.2,9.8-43.3
			c7.4-39.6,13.9-89.8,20.1-138.4c7.3-57.1,14.9-116.1,24.4-160.4c5.4-25.3,11.1-44.3,17.4-58.1c13.9-30.4,32.8-36.8,46.2-36.8
			s32.2,6.4,46.2,36.8c6.3,13.8,12,32.8,17.4,58.1c9.5,44.3,17,103.3,24.4,160.4c6.2,48.5,12.7,98.7,20.1,138.4
			c3.6,19.1,6.9,33.1,9.8,43.3c2.9-10.2,6.2-24.2,9.8-43.3c7.4-39.6,13.9-89.8,20.1-138.4c7.3-57.1,14.9-116.1,24.4-160.4
			c5.4-25.3,11.1-44.3,17.4-58.1c13.9-30.4,32.8-36.8,46.2-36.8s32.2,6.4,46.2,36.8c6.3,13.8,12,32.8,17.4,58.1
			c9.5,44.3,17,103.3,24.4,160.4c6.2,48.5,12.7,98.7,20.1,138.4c3.6,19.1,6.9,33.1,9.8,43.3c2.9-10.2,6.2-24.2,9.8-43.3
			c7.4-39.6,13.9-89.8,20.1-138.4c7.3-57.1,14.9-116.1,24.4-160.4c5.4-25.3,11.1-44.3,17.4-58.1c13.9-30.4,32.8-36.8,46.2-36.8
			c22.6,0,41.6,14.3,56.6,42.5c9.7,18.3,18.6,43.9,27.2,78.2c15.3,60.9,27.6,140.6,40.6,224.9c7.1,46.1,14.5,93.7,22.3,138.2
			c2.8,15.9-7.8,31.1-23.7,33.9c-15.9,2.8-31.1-7.8-33.9-23.7c-8-45.1-15.4-93.1-22.6-139.5c-11.6-75.5-22.6-146.8-35.5-203.2
			c-11-47.9-20.5-71.5-26.9-83.1c-3.6,10.1-8.5,27.2-13.9,56.1c-7.4,39.6-13.9,89.8-20.1,138.4c-7.3,57.1-14.9,116.1-24.4,160.4
			c-5.4,25.3-11.1,44.3-17.4,58.1c-13.9,30.4-32.8,36.8-46.2,36.8s-32.2-6.4-46.2-36.8c-6.3-13.8-12-32.8-17.4-58.1
			c-9.5-44.3-17-103.3-24.4-160.4c-6.2-48.5-12.7-98.8-20.1-138.4c-3.6-19.1-6.9-33.1-9.8-43.3c-2.9,10.2-6.2,24.2-9.8,43.3
			c-7.4,39.6-13.9,89.8-20.1,138.4c-7.3,57.1-14.9,116.1-24.4,160.4c-5.4,25.3-11.1,44.3-17.4,58.1c-13.9,30.4-32.8,36.8-46.2,36.8
			s-32.2-6.4-46.2-36.8c-6.3-13.8-12-32.8-17.4-58.1c-9.5-44.3-17-103.3-24.4-160.4c-6.2-48.5-12.7-98.8-20.1-138.4
			c-3.6-19.1-6.9-33.1-9.8-43.3c-2.9,10.2-6.2,24.2-9.8,43.3c-7.4,39.6-13.9,89.8-20.1,138.4c-7.3,57.1-14.9,116.1-24.4,160.4
			c-5.4,25.3-11.1,44.3-17.4,58.1c-13.9,30.4-32.8,36.8-46.2,36.8c-13.4,0-32.2-6.4-46.2-36.8c-6.3-13.8-12-32.8-17.4-58.1
			c-9.5-44.3-17-103.3-24.4-160.4c-6.2-48.5-12.7-98.7-20.1-138.4c-3.5-18.9-6.8-32.8-9.7-43c-3.1,10.7-6.6,25.6-10.4,46.2
			c-7.7,41.3-14.4,93.1-20.9,143.3c-20.6,160-31.4,222.2-62.7,241.8C125.9,850.2,118.8,852.3,111.6,852.3z"/>
	</g>
</g>
</svg>
