<?xml version="1.0" encoding="utf-8"?>
<!-- Generator: Adobe Illustrator 27.7.0, SVG Export Plug-In . SVG Version: 6.00 Build 0)  -->
<svg version="1.1" id="Layer_1" xmlns="http://www.w3.org/2000/svg" xmlns:xlink="http://www.w3.org/1999/xlink" x="0px" y="0px"
	 viewBox="0 0 1920 1080" style="enable-background:new 0 0 1920 1080;" xml:space="preserve">
<style type="text/css">
	.st0{fill:#FF6B00;}
	.st1{fill:#007D48;}
	.st2{fill:#C7AFD0;}
</style>
<g>
	<g>
		<path class="st0" d="M181.8,684c0,66.6,44,120.6,98.3,120.6s98.3-53.9,98.3-120.6c0,66.6,44,120.6,98.3,120.6S575,750.6,575,684
			c0,66.6,44,120.6,98.3,120.6c54.3,0,98.3-53.9,98.3-120.6c47.9,47.1,117.8,54.6,156.2,16.9c38.4-37.8,30.7-106.5-17.1-153.6
			c47.9-47.1,55.6-115.9,17.1-153.6c-38.4-37.8-108.3-30.2-156.2,16.9c0-66.5-44-120.5-98.3-120.5S575,344,575,410.6
			C575,344,531,290,476.7,290s-98.3,53.9-98.3,120.6c0-66.6-44-120.6-98.3-120.6s-98.3,53.9-98.3,120.6
			C133.9,363.5,64,356,25.6,393.7c-38.4,37.8-30.7,106.5,17.1,153.5c-47.9,47.1-55.6,115.9-17.1,153.6S133.9,731.1,181.8,684"/>
	</g>
	<path class="st1" d="M1924.6,286c0,287.9-215.8,521.3-481.8,521.3S961,573.9,961,286H1924.6z"/>
	<g>
		<path class="st2" d="M880.4,819.1c-4.5,0-9.1-0.7-13.5-2.3c-27.4-9.3-40.3-44.2-49.3-77.2c-8.3-30.3-16-70.6-23.4-123.3
			c-13.2-93.1-22.6-203.7-28.7-276.8c-1.4-17.1-2.7-31.9-3.8-44.4c-1.5-17.3,11.2-32.5,28.5-34.1c17.3-1.6,32.5,11.2,34.1,28.5
			c1.1,12.7,2.4,27.5,3.9,44.7c5.7,67.4,14.3,169.3,26.1,257c6.4,47.5,13.1,86.3,19.9,115.3c1.8,7.6,3.5,14.2,5.1,19.9
			c2.4-9.7,5-22,7.9-37.5c7.5-40.9,14.2-93.1,20.7-143.6c8.1-63,16.5-128.1,26.9-177.4c5.9-28.1,12.1-49.2,19-64.4
			c4.7-10.5,9.8-18.7,15.7-25c12.2-13,25.3-15.8,34.2-15.8c14.3,0,34.6,6.9,49.5,39.5c6.8,14.8,12.9,35.2,18.7,62.4
			c10.1,47.5,18.3,110.8,26.1,172.1c6.7,52.1,13.6,105.9,21.5,148.4c3.8,20.5,7.4,35.5,10.5,46.4c3.1-10.9,6.7-25.9,10.5-46.4
			c8-42.5,14.9-96.3,21.5-148.4c7.9-61.2,16-124.6,26.1-172.1c5.8-27.2,11.9-47.6,18.7-62.4c15-32.7,35.2-39.5,49.5-39.5
			c14.3,0,34.6,6.9,49.5,39.5c6.8,14.8,12.9,35.2,18.7,62.4c10.1,47.5,18.3,110.8,26.1,172.1c6.7,52.1,13.6,105.9,21.5,148.4
			c3.8,20.5,7.4,35.5,10.5,46.4c3.1-10.9,6.7-25.9,10.5-46.4c8-42.5,14.9-96.3,21.5-148.4c7.9-61.2,16-124.6,26.1-172.1
			c5.8-27.2,11.9-47.6,18.7-62.4c15-32.7,35.2-39.5,49.5-39.5c14.3,0,34.6,6.9,49.5,39.5c6.8,14.8,12.9,35.2,18.7,62.4
			c10.1,47.5,18.3,110.8,26.1,172.1c6.7,52.1,13.6,105.9,21.5,148.4c3.8,20.5,7.4,35.5,10.5,46.4c3.1-10.9,6.7-25.9,10.5-46.4
			c8-42.5,14.9-96.3,21.5-148.4c7.9-61.2,16-124.6,26.1-172.1c5.8-27.2,11.9-47.6,18.7-62.4c15-32.7,35.2-39.5,49.5-39.5
			c24.2,0,44.6,15.3,60.7,45.6c10.4,19.7,20,47.1,29.2,83.9c16.4,65.3,29.5,150.8,43.5,241.2c7.6,49.4,15.5,100.5,24,148.2
			c3,17.1-8.4,33.4-25.4,36.4c-17.1,3-33.4-8.4-36.4-25.4c-8.6-48.4-16.5-99.8-24.2-149.6c-12.5-81-24.3-157.4-38.1-217.9
			c-11.7-51.3-22-76.7-28.8-89.1c-3.9,10.8-9.1,29.2-14.9,60.2c-8,42.5-14.9,96.3-21.5,148.4c-7.9,61.2-16,124.6-26.1,172.1
			c-5.8,27.2-11.9,47.6-18.7,62.4c-15,32.7-35.2,39.5-49.5,39.5s-34.6-6.9-49.5-39.5c-6.8-14.8-12.9-35.2-18.7-62.4
			c-10.1-47.5-18.3-110.8-26.1-172.1c-6.7-52.1-13.6-105.9-21.5-148.4c-3.8-20.5-7.4-35.5-10.5-46.4c-3.1,10.9-6.7,25.9-10.5,46.4
			c-8,42.5-14.9,96.3-21.5,148.4c-7.9,61.2-16,124.6-26.1,172.1c-5.8,27.2-11.9,47.6-18.7,62.4c-15,32.7-35.2,39.5-49.5,39.5
			c-14.3,0-34.6-6.9-49.5-39.5c-6.8-14.8-12.9-35.2-18.7-62.4c-10.1-47.5-18.3-110.8-26.1-172.1c-6.7-52.1-13.6-105.9-21.5-148.4
			c-3.8-20.5-7.4-35.5-10.5-46.4c-3.1,10.9-6.7,25.9-10.5,46.4c-8,42.5-14.9,96.3-21.5,148.4c-7.9,61.2-16,124.6-26.1,172.1
			c-5.8,27.2-11.9,47.6-18.7,62.4c-15,32.7-35.2,39.5-49.5,39.5c-14.3,0-34.6-6.9-49.5-39.5c-6.8-14.8-12.9-35.2-18.7-62.4
			c-10.1-47.5-18.3-110.8-26.1-172.1c-6.7-52.1-13.6-105.9-21.5-148.4c-3.8-20.3-7.3-35.2-10.4-46.1c-3.3,11.5-7.1,27.5-11.2,49.5
			c-8.3,44.2-15.4,99.9-22.4,153.7c-22.1,171.5-33.6,238.3-67.2,259.3C895.7,816.9,888.1,819.1,880.4,819.1z"/>
	</g>
</g>
</svg>
