<?xml version="1.0" encoding="utf-8"?>
<!-- Generator: Adobe Illustrator 27.7.0, SVG Export Plug-In . SVG Version: 6.00 Build 0)  -->
<svg version="1.1" id="Layer_1" xmlns="http://www.w3.org/2000/svg" xmlns:xlink="http://www.w3.org/1999/xlink" x="0px" y="0px"
	 viewBox="0 0 1398 1403" style="enable-background:new 0 0 1398 1403;" xml:space="preserve">
<style type="text/css">
	.st0{fill:#007D48;}
	.st1{fill:#C8B0D1;}
	.st2{fill:#FF6B00;}
</style>
<g>
	<path class="st0" d="M265.5,1225.8c0,97.9,64.7,177.2,144.5,177.2s144.5-79.3,144.5-177.2c0,97.9,64.7,177.2,144.5,177.2
		s144.5-79.3,144.5-177.2c0,97.9,64.7,177.2,144.5,177.2s144.5-79.3,144.5-177.2c70.4,69.2,173.1,80.3,229.6,24.8
		c56.4-55.5,45.1-156.6-25.2-225.8c70.4-69.2,81.7-170.3,25.2-225.8c-56.4-55.5-159.2-44.4-229.6,24.8
		c0-97.9-64.7-177.2-144.5-177.2S843.5,726,843.5,823.9c0-97.9-64.7-177.2-144.5-177.2S554.5,726,554.5,823.9
		c0-97.9-64.7-177.2-144.5-177.2S265.5,726,265.5,823.9c-70.4-69.2-173.1-80.3-229.6-24.8c-56.4,55.5-45.1,156.6,25.2,225.8
		c-70.4,69.2-81.7,170.3-25.2,225.8C92.4,1306.1,195.1,1295,265.5,1225.8"/>
</g>
<g>
	<path class="st1" d="M265.5,902.5c0,97.9,64.7,177.2,144.5,177.2s144.5-79.3,144.5-177.2c0,97.9,64.7,177.2,144.5,177.2
		s144.5-79.3,144.5-177.2c0,97.9,64.7,177.2,144.5,177.2s144.5-79.3,144.5-177.2c70.4,69.2,173.1,80.3,229.6,24.8
		c56.4-55.5,45.1-156.6-25.2-225.8c70.4-69.2,81.7-170.3,25.2-225.8c-56.4-55.5-159.2-44.4-229.6,24.8
		c0-97.9-64.7-177.2-144.5-177.2s-144.5,79.3-144.5,177.2c0-97.9-64.7-177.2-144.5-177.2s-144.5,79.3-144.5,177.2
		c0-97.9-64.7-177.2-144.5-177.2s-144.5,79.3-144.5,177.2c-70.4-69.2-173.1-80.3-229.6-24.8c-56.4,55.5-45.1,156.6,25.2,225.8
		c-70.4,69.2-81.7,170.3-25.2,225.8C92.4,982.8,195.1,971.7,265.5,902.5"/>
</g>
<g>
	<path class="st2" d="M265.5,579.1c0,97.9,64.7,177.2,144.5,177.2S554.5,677,554.5,579.1c0,97.9,64.7,177.2,144.5,177.2
		S843.5,677,843.5,579.1c0,97.9,64.7,177.2,144.5,177.2s144.5-79.3,144.5-177.2c70.4,69.2,173.1,80.3,229.6,24.8
		c56.4-55.5,45.1-156.6-25.2-225.8c70.4-69.2,81.7-170.3,25.2-225.8c-56.4-55.5-159.2-44.4-229.6,24.8C1132.5,79.3,1067.8,0,988,0
		S843.5,79.3,843.5,177.2C843.5,79.3,778.8,0,699,0S554.5,79.3,554.5,177.2C554.5,79.3,489.8,0,410,0S265.5,79.3,265.5,177.2
		C195.1,108,92.4,96.9,35.9,152.4C-20.5,207.9-9.2,309,61.1,378.1c-70.4,69.2-81.7,170.3-25.2,225.8S195.1,648.3,265.5,579.1"/>
</g>
</svg>
