<?xml version="1.0" encoding="utf-8"?>
<!-- Generator: Adobe Illustrator 27.7.0, SVG Export Plug-In . SVG Version: 6.00 Build 0)  -->
<svg version="1.1" id="Layer_1" xmlns="http://www.w3.org/2000/svg" xmlns:xlink="http://www.w3.org/1999/xlink" x="0px" y="0px"
	 viewBox="0 0 352 114" style="enable-background:new 0 0 352 114;" xml:space="preserve">
<g>
	<path d="M21.2,114c-0.4,0-0.9-0.1-1.3-0.2c-8.9-3-13.9-41.3-19-102C0.5,8,0.3,4.6,0,1.8C-0.1,0.9,0.6,0.1,1.5,0
		c0.9-0.1,1.7,0.6,1.8,1.5c0.3,2.8,0.5,6.2,0.9,10c1.4,16.3,3.5,40.8,6.4,61.4c4.6,32.5,8.9,37.3,10.5,37.8c0.2,0.1,0.4,0.1,0.7-0.1
		c4.7-3,8.2-30,11-51.7c4.7-36.3,8-58.5,16-58.5c8.1,0,11.2,21.5,15.7,56.5c1.7,13.5,3.5,27.5,5.7,37.8c3.1,14.4,5.8,15.9,6.8,15.9
		s3.7-1.6,6.8-15.9c2.2-10.3,4-24.2,5.7-37.8c4.5-35,7.7-56.5,15.7-56.5s11.2,21.5,15.7,56.5c1.7,13.5,3.5,27.5,5.7,37.8
		c3.1,14.4,5.8,15.9,6.8,15.9s3.7-1.6,6.8-15.9c2.2-10.3,4-24.2,5.7-37.8c4.5-35,7.7-56.5,15.7-56.5s11.2,21.5,15.7,56.5
		c1.7,13.5,3.5,27.5,5.7,37.8c3.1,14.4,5.8,15.9,6.8,15.9s3.7-1.6,6.8-15.9c2.2-10.3,4-24.2,5.7-37.8c4.5-35,7.7-56.5,15.7-56.5
		s11.2,21.5,15.7,56.5c1.7,13.5,3.5,27.5,5.7,37.8c3.1,14.4,5.8,15.9,6.8,15.9s3.7-1.6,6.8-15.9c2.2-10.3,4-24.2,5.7-37.8
		c4.5-35,7.7-56.5,15.7-56.5s11.2,21.5,15.7,56.5c1.7,13.5,3.5,27.5,5.7,37.8c3.1,14.4,5.8,15.9,6.8,15.9s3.7-1.6,6.8-15.9
		c2.2-10.3,4-24.2,5.7-37.8c4.5-35,7.7-56.5,15.7-56.5c9.4,0,14.1,34.2,19.1,93.2c0.6,7.2,1.1,13.4,1.6,17.5
		c0.1,0.9-0.5,1.7-1.4,1.8c-0.9,0.1-1.7-0.5-1.8-1.4c-0.4-4.1-1-10.3-1.6-17.5c-1.4-16.7-3.3-39.6-6.1-58.3
		c-4.5-30.4-8.9-31.9-9.7-31.9c-1,0-3.7,1.6-6.8,15.9c-2.2,10.3-4,24.2-5.7,37.8c-4.5,35-7.7,56.5-15.7,56.5s-11.2-21.5-15.7-56.5
		c-1.7-13.5-3.5-27.5-5.7-37.8c-3.1-14.4-5.8-15.9-6.8-15.9s-3.7,1.6-6.8,15.9c-2.2,10.3-4,24.2-5.7,37.8
		c-4.5,35-7.7,56.5-15.7,56.5s-11.2-21.5-15.7-56.5c-1.7-13.5-3.5-27.5-5.7-37.8c-3.1-14.4-5.8-15.9-6.8-15.9s-3.7,1.6-6.8,15.9
		c-2.2,10.3-4,24.2-5.7,37.8c-4.5,35-7.7,56.5-15.7,56.5s-11.2-21.5-15.7-56.5c-1.7-13.5-3.5-27.5-5.7-37.8
		c-3.1-14.4-5.8-15.9-6.8-15.9s-3.7,1.6-6.8,15.9c-2.2,10.3-4,24.2-5.7,37.8c-4.5,35-7.7,56.5-15.7,56.5s-11.2-21.5-15.7-56.5
		c-1.7-13.5-3.5-27.5-5.7-37.8c-3.1-14.4-5.8-15.9-6.8-15.9s-3.7,1.6-6.8,15.9c-2.2,10.3-4,24.2-5.7,37.8
		c-4.5,35-7.7,56.5-15.7,56.5S65.7,92.4,61.2,57.3c-1.7-13.5-3.5-27.5-5.7-37.8C52.4,5.2,49.7,3.6,48.7,3.6c-0.8,0-3.7,1.2-6.9,16.7
		c-2.3,10.7-4.1,25.1-5.9,39c-4,31.3-6.9,50.6-12.5,54.1C22.6,113.8,21.9,114,21.2,114z"/>
</g>
</svg>
