<?xml version="1.0" encoding="utf-8"?>
<!-- Generator: Adobe Illustrator 27.7.0, SVG Export Plug-In . SVG Version: 6.00 Build 0)  -->
<svg version="1.1" id="Layer_1" xmlns="http://www.w3.org/2000/svg" xmlns:xlink="http://www.w3.org/1999/xlink" x="0px" y="0px"
	 viewBox="0 0 1398 1403" style="enable-background:new 0 0 1398 1403;" xml:space="preserve">
<style type="text/css">
	.st0{fill:#007D48;}
	.st1{fill:#C8B0D1;}
	.st2{fill:#FF6B00;}
</style>
<g>
	<path class="st0" d="M108,476.4c-3.9,0-7.7-0.6-11.5-1.9c-23.3-7.9-34.4-37.7-42.1-65.9c-7.1-25.9-13.6-60.3-20-105.2
		C23.1,223.9,15.1,129.6,9.8,67.1C8.6,52.5,7.5,39.9,6.6,29.2C5.2,14.4,16.1,1.4,30.9,0.1C45.6-1.2,58.7,9.7,60,24.4
		c1,10.9,2,23.5,3.3,38.2c4.9,57.5,12.2,144.5,22.3,219.3c5.4,40.5,11.1,73.6,17,98.4c1.5,6.5,3,12.1,4.4,17c2-8.3,4.3-18.8,6.7-32
		c6.4-34.9,12.1-79.5,17.7-122.6c6.9-53.8,14.1-109.4,23-151.4c5.1-24,10.4-42,16.2-55c4-9,8.4-15.9,13.4-21.3
		c10.4-11.1,21.6-13.5,29.2-13.5c12.2,0,29.5,5.9,42.3,33.7c5.8,12.6,11,30.1,16,53.2c8.7,40.5,15.6,94.6,22.3,146.9
		c5.7,44.4,11.6,90.4,18.4,126.7c3.3,17.5,6.3,30.3,9,39.6c2.7-9.3,5.7-22.1,9-39.6c6.8-36.3,12.7-82.2,18.4-126.7
		c6.7-52.3,13.6-106.3,22.3-146.9c5-23.2,10.2-40.6,16-53.2c12.8-27.9,30-33.7,42.3-33.7s29.5,5.9,42.3,33.7
		c5.8,12.6,11,30.1,16,53.2c8.7,40.5,15.6,94.6,22.3,146.9c5.7,44.4,11.6,90.4,18.4,126.7c3.3,17.5,6.3,30.3,9,39.6
		c2.7-9.3,5.7-22.1,9-39.6c6.8-36.3,12.7-82.2,18.4-126.7c6.7-52.3,13.6-106.3,22.3-146.9c5-23.2,10.2-40.6,16-53.2
		c12.8-27.9,30-33.7,42.3-33.7s29.5,5.9,42.3,33.7c5.8,12.6,11,30.1,16,53.2c8.7,40.5,15.6,94.6,22.3,146.9
		c5.7,44.4,11.6,90.4,18.4,126.7c3.3,17.5,6.3,30.3,9,39.6c2.7-9.3,5.7-22.1,9-39.6c6.8-36.3,12.7-82.2,18.4-126.7
		c6.7-52.3,13.6-106.3,22.3-146.9c5-23.2,10.2-40.6,16-53.2c12.8-27.9,30-33.7,42.3-33.7s29.5,5.9,42.3,33.7
		c5.8,12.6,11,30.1,16,53.2c8.7,40.5,15.6,94.6,22.3,146.9c5.7,44.4,11.6,90.4,18.4,126.7c3.3,17.5,6.3,30.3,9,39.6
		c2.7-9.3,5.7-22.1,9-39.6c6.8-36.3,12.7-82.2,18.4-126.7c6.7-52.3,13.6-106.3,22.3-146.9c5-23.2,10.2-40.6,16-53.2
		c12.8-27.9,30-33.7,42.3-33.7s29.5,5.9,42.3,33.7c5.8,12.6,11,30.1,16,53.2c8.7,40.5,15.6,94.6,22.3,146.9
		c5.7,44.4,11.6,90.4,18.4,126.7c3.3,17.5,6.3,30.3,9,39.6c2.7-9.3,5.7-22.1,9-39.6c6.8-36.3,12.7-82.2,18.4-126.7
		c6.7-52.3,13.6-106.3,22.3-146.9c5-23.2,10.2-40.6,16-53.2c12.8-27.9,30-33.7,42.3-33.7c32.8,0,45.4,40.3,50.1,55.5
		c7.1,22.5,13.5,53.4,19.6,94.5c10.8,72.4,18.2,160.5,23.7,224.8c2.3,27.3,4.3,50.9,6,66.2c1.6,14.7-9,27.9-23.7,29.5
		s-27.9-9-29.5-23.7c-1.7-15.9-3.8-39.8-6.1-67.5c-4.8-57.1-11.4-135.2-20.5-202c-4.9-35.9-10.1-65.2-15.4-87
		c-1.5-6.1-2.9-11.2-4.2-15.7c-2.6,9.3-5.7,22-8.9,39.4c-6.8,36.3-12.7,82.2-18.4,126.7c-6.7,52.3-13.6,106.3-22.3,146.9
		c-5,23.2-10.2,40.6-16,53.2c-12.8,27.9-30,33.7-42.3,33.7c-12.2,0-29.5-5.9-42.3-33.7c-5.8-12.6-11-30.1-16-53.2
		c-8.7-40.5-15.6-94.6-22.3-146.9c-5.7-44.4-11.6-90.4-18.4-126.7c-3.3-17.5-6.3-30.3-9-39.6c-2.7,9.3-5.7,22.1-9,39.6
		c-6.8,36.3-12.7,82.2-18.4,126.7c-6.7,52.3-13.6,106.3-22.3,146.9c-5,23.2-10.2,40.6-16,53.2c-12.8,27.9-30,33.7-42.3,33.7
		c-12.2,0-29.5-5.9-42.3-33.7c-5.8-12.6-11-30.1-16-53.2c-8.7-40.5-15.6-94.6-22.3-146.9c-5.7-44.4-11.6-90.4-18.4-126.7
		c-3.3-17.5-6.3-30.3-9-39.6c-2.7,9.3-5.7,22.1-9,39.6c-6.8,36.3-12.7,82.2-18.4,126.7c-6.7,52.3-13.6,106.3-22.3,146.9
		c-5,23.2-10.2,40.6-16,53.2c-12.8,27.9-30,33.7-42.3,33.7s-29.5-5.9-42.3-33.7c-5.8-12.6-11-30.1-16-53.2
		c-8.7-40.5-15.6-94.6-22.3-146.9c-5.7-44.4-11.6-90.4-18.4-126.7c-3.3-17.5-6.3-30.3-9-39.6c-2.7,9.3-5.7,22.1-9,39.6
		c-6.8,36.3-12.7,82.2-18.4,126.7c-6.7,52.3-13.6,106.3-22.3,146.9c-5,23.2-10.2,40.6-16,53.2c-12.8,27.9-30,33.7-42.3,33.7
		c-12.2,0-29.5-5.9-42.3-33.7c-5.8-12.6-11-30.1-16-53.2c-8.7-40.5-15.6-94.6-22.3-146.9c-5.7-44.4-11.6-90.4-18.4-126.7
		c-3.3-17.5-6.3-30.3-9-39.6c-2.7,9.3-5.7,22.1-9,39.6c-6.8,36.3-12.7,82.2-18.4,126.7c-6.7,52.3-13.6,106.3-22.3,146.9
		c-5,23.2-10.2,40.6-16,53.2c-12.8,27.9-30,33.7-42.3,33.7s-29.5-5.9-42.3-33.7c-5.8-12.6-11-30.1-16-53.2
		c-8.7-40.5-15.6-94.6-22.3-146.9c-5.7-44.4-11.6-90.4-18.4-126.7c-3.2-17.3-6.3-30-8.9-39.3c-2.8,9.8-6.1,23.4-9.6,42.3
		c-7.1,37.8-13.2,85.2-19.1,131.2C165.5,396,155.6,453,127,470.9C121.1,474.6,114.6,476.4,108,476.4z"/>
</g>
<g>
	<path class="st1" d="M108,939.7c-3.9,0-7.7-0.6-11.5-1.9c-23.3-7.9-34.4-37.7-42.1-65.9c-7.1-25.9-13.6-60.3-20-105.2
		C23.1,687.2,15.1,592.9,9.8,530.4c-1.2-14.6-2.3-27.2-3.3-37.9c-1.3-14.7,9.6-27.8,24.3-29.1c14.7-1.3,27.8,9.6,29.1,24.3
		c1,10.9,2,23.5,3.3,38.2c4.9,57.5,12.2,144.5,22.3,219.3c5.4,40.5,11.1,73.6,17,98.4c1.5,6.5,3,12.1,4.4,17c2-8.3,4.3-18.8,6.7-32
		c6.4-34.9,12.1-79.5,17.7-122.6c6.9-53.8,14.1-109.4,23-151.4c5.1-24,10.4-42,16.2-55c4-9,8.4-15.9,13.4-21.3
		c10.4-11.1,21.6-13.5,29.2-13.5c12.2,0,29.5,5.9,42.3,33.7c5.8,12.6,11,30.1,16,53.2c8.7,40.5,15.6,94.6,22.3,146.9
		c5.7,44.4,11.6,90.4,18.4,126.7c3.3,17.5,6.3,30.3,9,39.6c2.7-9.3,5.7-22.1,9-39.6c6.8-36.3,12.7-82.2,18.4-126.7
		c6.7-52.3,13.6-106.3,22.3-146.9c5-23.2,10.2-40.6,16-53.2c12.8-27.9,30-33.7,42.3-33.7s29.5,5.9,42.3,33.7
		c5.8,12.6,11,30.1,16,53.2c8.7,40.5,15.6,94.6,22.3,146.9c5.7,44.4,11.6,90.4,18.4,126.7c3.3,17.5,6.3,30.3,9,39.6
		c2.7-9.3,5.7-22.1,9-39.6c6.8-36.3,12.7-82.2,18.4-126.7c6.7-52.3,13.6-106.3,22.3-146.9c5-23.2,10.2-40.6,16-53.2
		c12.8-27.9,30-33.7,42.3-33.7s29.5,5.9,42.3,33.7c5.8,12.6,11,30.1,16,53.2c8.7,40.5,15.6,94.6,22.3,146.9
		c5.7,44.4,11.6,90.4,18.4,126.7c3.3,17.5,6.3,30.3,9,39.6c2.7-9.3,5.7-22.1,9-39.6c6.8-36.3,12.7-82.2,18.4-126.7
		c6.7-52.3,13.6-106.3,22.3-146.9c5-23.2,10.2-40.6,16-53.2c12.8-27.9,30-33.7,42.3-33.7s29.5,5.9,42.3,33.7
		c5.8,12.6,11,30.1,16,53.2c8.7,40.5,15.6,94.6,22.3,146.9c5.7,44.4,11.6,90.4,18.4,126.7c3.3,17.5,6.3,30.3,9,39.6
		c2.7-9.3,5.7-22.1,9-39.6c6.8-36.3,12.7-82.2,18.4-126.7c6.7-52.3,13.6-106.3,22.3-146.9c5-23.2,10.2-40.6,16-53.2
		c12.8-27.9,30-33.7,42.3-33.7s29.5,5.9,42.3,33.7c5.8,12.6,11,30.1,16,53.2c8.7,40.5,15.6,94.6,22.3,146.9
		c5.7,44.4,11.6,90.4,18.4,126.7c3.3,17.5,6.3,30.3,9,39.6c2.7-9.3,5.7-22.1,9-39.6c6.8-36.3,12.7-82.2,18.4-126.7
		c6.7-52.3,13.6-106.3,22.3-146.9c5-23.2,10.2-40.6,16-53.2c12.8-27.9,30-33.7,42.3-33.7c32.8,0,45.4,40.3,50.1,55.5
		c7.1,22.5,13.5,53.4,19.6,94.5c10.8,72.4,18.2,160.5,23.7,224.8c2.3,27.3,4.3,50.9,6,66.2c1.6,14.7-9,27.9-23.7,29.5
		s-27.9-9-29.5-23.7c-1.7-15.9-3.8-39.8-6.1-67.5c-4.8-57.1-11.4-135.2-20.5-202c-4.9-35.9-10.1-65.2-15.4-87
		c-1.5-6.1-2.9-11.2-4.2-15.7c-2.6,9.3-5.7,22-8.9,39.4c-6.8,36.3-12.7,82.2-18.4,126.7c-6.7,52.3-13.6,106.3-22.3,146.9
		c-5,23.2-10.2,40.6-16,53.2c-12.8,27.9-30,33.7-42.3,33.7c-12.2,0-29.5-5.9-42.3-33.7c-5.8-12.6-11-30.1-16-53.2
		c-8.7-40.5-15.6-94.6-22.3-146.9c-5.7-44.4-11.6-90.4-18.4-126.7c-3.3-17.5-6.3-30.3-9-39.6c-2.7,9.3-5.7,22.1-9,39.6
		c-6.8,36.3-12.7,82.2-18.4,126.7c-6.7,52.3-13.6,106.3-22.3,146.9c-5,23.2-10.2,40.6-16,53.2c-12.8,27.9-30,33.7-42.3,33.7
		c-12.2,0-29.5-5.9-42.3-33.7c-5.8-12.6-11-30.1-16-53.2c-8.7-40.5-15.6-94.6-22.3-146.9c-5.7-44.4-11.6-90.4-18.4-126.7
		c-3.3-17.5-6.3-30.3-9-39.6c-2.7,9.3-5.7,22.1-9,39.6C844.6,615,838.7,661,833,705.4c-6.7,52.3-13.6,106.3-22.3,146.9
		c-5,23.2-10.2,40.6-16,53.2c-12.8,27.9-30,33.7-42.3,33.7s-29.5-5.9-42.3-33.7c-5.8-12.6-11-30.1-16-53.2
		c-8.7-40.5-15.6-94.6-22.3-146.9c-5.7-44.4-11.6-90.4-18.4-126.7c-3.3-17.5-6.3-30.3-9-39.6c-2.7,9.3-5.7,22.1-9,39.6
		c-6.8,36.3-12.7,82.2-18.4,126.7c-6.7,52.3-13.6,106.3-22.3,146.9c-5,23.2-10.2,40.6-16,53.2c-12.8,27.9-30,33.7-42.3,33.7
		c-12.2,0-29.5-5.9-42.3-33.7c-5.8-12.6-11-30.1-16-53.2c-8.7-40.5-15.6-94.6-22.3-146.9c-5.7-44.4-11.6-90.4-18.4-126.7
		c-3.3-17.5-6.3-30.3-9-39.6c-2.7,9.3-5.7,22.1-9,39.6c-6.4,36.3-12.3,82.3-18,126.7c-6.7,52.3-13.6,106.3-22.3,146.9
		c-5,23.2-10.2,40.6-16,53.2c-12.8,27.9-30,33.7-42.3,33.7s-29.5-5.9-42.3-33.7c-5.8-12.6-11-30.1-16-53.2
		c-8.7-40.5-15.6-94.6-22.3-146.9c-5.7-44.4-11.6-90.4-18.4-126.7c-3.2-17.3-6.3-30-8.9-39.3c-2.8,9.8-6.1,23.4-9.6,42.3
		c-7.1,37.8-13.2,85.2-19.1,131.2c-18.9,146.4-28.7,203.4-57.4,221.3C121.1,937.8,114.6,939.7,108,939.7z"/>
</g>
<g>
	<path class="st2" d="M108,1403c-3.9,0-7.7-0.6-11.5-1.9c-23.3-7.9-34.4-37.7-42.1-65.9c-7.1-25.9-13.6-60.3-20-105.2
		c-11.3-79.5-19.3-173.8-24.5-236.3c-1.2-14.6-2.3-27.2-3.3-37.9C5.2,941,16.1,928,30.9,926.7c14.7-1.3,27.8,9.6,29.1,24.3
		c1,10.9,2,23.5,3.3,38.2c4.9,57.5,12.2,144.5,22.3,219.3c5.4,40.5,11.1,73.6,17,98.4c1.5,6.5,3,12.1,4.4,17c2-8.3,4.3-18.8,6.7-32
		c6.4-34.9,12.1-79.5,17.7-122.6c6.9-53.8,14.1-109.4,23-151.4c5.1-24,10.4-42,16.2-55c4-9,8.4-15.9,13.4-21.3
		c10.4-11.1,21.6-13.5,29.2-13.5c12.2,0,29.5,5.9,42.3,33.7c5.8,12.6,11,30.1,16,53.2c8.7,40.5,15.6,94.6,22.3,146.9
		c5.7,44.4,11.6,90.4,18.4,126.7c3.3,17.5,6.3,30.3,9,39.6c2.7-9.3,5.7-22.1,9-39.6c6.8-36.3,12.7-82.2,18.4-126.7
		c6.7-52.3,13.6-106.3,22.3-146.9c5-23.2,10.2-40.6,16-53.2c12.8-27.9,30-33.7,42.3-33.7s29.5,5.9,42.3,33.7
		c5.8,12.6,11,30.1,16,53.2c8.7,40.5,15.6,94.6,22.3,146.9c5.7,44.4,11.6,90.4,18.4,126.7c3.3,17.5,6.3,30.3,9,39.6
		c2.7-9.3,5.7-22.1,9-39.6c6.8-36.3,12.7-82.2,18.4-126.7c6.7-52.3,13.6-106.3,22.3-146.9c5-23.2,10.2-40.6,16-53.2
		c12.8-27.9,30-33.7,42.3-33.7s29.5,5.9,42.3,33.7c5.8,12.6,11,30.1,16,53.2c8.7,40.5,15.6,94.6,22.3,146.9
		c5.7,44.4,11.6,90.4,18.4,126.7c3.3,17.5,6.3,30.3,9,39.6c2.7-9.3,5.7-22.1,9-39.6c6.8-36.3,12.7-82.2,18.4-126.7
		c6.7-52.3,13.6-106.3,22.3-146.9c5-23.2,10.2-40.6,16-53.2c12.8-27.9,30-33.7,42.3-33.7s29.5,5.9,42.3,33.7
		c5.8,12.6,11,30.1,16,53.2c8.7,40.5,15.6,94.6,22.3,146.9c5.7,44.4,11.6,90.4,18.4,126.7c3.3,17.5,6.3,30.3,9,39.6
		c2.7-9.3,5.7-22.1,9-39.6c6.8-36.3,12.7-82.2,18.4-126.7c6.7-52.3,13.6-106.3,22.3-146.9c5-23.2,10.2-40.6,16-53.2
		c12.8-27.9,30-33.7,42.3-33.7s29.5,5.9,42.3,33.7c5.8,12.6,11,30.1,16,53.2c8.7,40.5,15.6,94.6,22.3,146.9
		c5.7,44.4,11.6,90.4,18.4,126.7c3.3,17.5,6.3,30.3,9,39.6c2.7-9.3,5.7-22.1,9-39.6c6.8-36.3,12.7-82.2,18.4-126.7
		c6.7-52.3,13.6-106.3,22.3-146.9c5-23.2,10.2-40.6,16-53.2c12.8-27.9,30-33.7,42.3-33.7c32.8,0,45.4,40.3,50.1,55.5
		c7.1,22.5,13.5,53.4,19.6,94.5c10.8,72.4,18.2,160.5,23.7,224.8c2.3,27.3,4.3,50.9,6,66.2c1.6,14.7-9,27.9-23.7,29.5
		s-27.9-9-29.5-23.7c-1.7-15.9-3.8-39.8-6.1-67.5c-4.8-57.1-11.4-135.2-20.5-202c-4.9-35.9-10.1-65.2-15.4-87
		c-1.5-6.1-2.9-11.2-4.2-15.7c-2.6,9.3-5.7,22-8.9,39.4c-6.8,36.3-12.7,82.2-18.4,126.7c-6.7,52.3-13.6,106.3-22.3,146.9
		c-5,23.2-10.2,40.6-16,53.2c-12.8,27.9-30,33.7-42.3,33.7c-12.2,0-29.5-5.9-42.3-33.7c-5.8-12.6-11-30.1-16-53.2
		c-8.7-40.5-15.6-94.6-22.3-146.9c-5.7-44.4-11.6-90.4-18.4-126.7c-3.3-17.5-6.3-30.3-9-39.6c-2.7,9.3-5.7,22.1-9,39.6
		c-6.8,36.3-12.7,82.2-18.4,126.7c-6.7,52.3-13.6,106.3-22.3,146.9c-5,23.2-10.2,40.6-16,53.2c-12.8,27.9-30,33.7-42.3,33.7
		c-12.2,0-29.5-5.9-42.3-33.7c-5.8-12.6-11-30.1-16-53.2c-8.7-40.5-15.6-94.6-22.3-146.9c-5.7-44.4-11.6-90.4-18.4-126.7
		c-3.3-17.5-6.3-30.3-9-39.6c-2.7,9.3-5.7,22.1-9,39.6c-6.8,36.3-12.7,82.2-18.4,126.7c-6.7,52.3-13.6,106.3-22.3,146.9
		c-5,23.2-10.2,40.6-16,53.2c-12.8,27.9-30,33.7-42.3,33.7s-29.5-5.9-42.3-33.7c-5.8-12.6-11-30.1-16-53.2
		c-8.7-40.5-15.6-94.6-22.3-146.9c-5.7-44.4-11.6-90.4-18.4-126.7c-3.3-17.5-6.3-30.3-9-39.6c-2.7,9.3-5.7,22.1-9,39.6
		c-6.8,36.3-12.7,82.2-18.4,126.7c-6.7,52.3-13.6,106.3-22.3,146.9c-5,23.2-10.2,40.6-16,53.2c-12.8,27.9-30,33.7-42.3,33.7
		c-12.2,0-29.5-5.9-42.3-33.7c-5.8-12.6-11-30.1-16-53.2c-8.7-40.5-15.6-94.6-22.3-146.9c-5.7-44.4-11.6-90.4-18.4-126.7
		c-3.3-17.5-6.3-30.3-9-39.6c-2.7,9.3-5.7,22.1-9,39.6c-6.8,36.3-12.7,82.2-18.4,126.7c-6.7,52.3-13.6,106.3-22.3,146.9
		c-5,23.2-10.2,40.6-16,53.2c-12.8,27.9-30,33.7-42.3,33.7s-29.5-5.9-42.3-33.7c-5.8-12.6-11-30.1-16-53.2
		c-8.7-40.5-15.6-94.6-22.3-146.9c-5.7-44.4-11.6-90.4-18.4-126.7c-3.2-17.3-6.3-30-8.9-39.3c-2.8,9.8-6.1,23.4-9.6,42.3
		c-7.1,37.8-13.2,85.2-19.1,131.2c-18.9,146.4-28.7,203.4-57.4,221.3C121.1,1401.1,114.6,1403,108,1403z"/>
</g>
</svg>
